<?xml version="1.0" encoding="UTF-8"?>
<!DOCTYPE svg PUBLIC "-//W3C//DTD SVG 1.1//EN" "http://www.w3.org/Graphics/SVG/1.1/DTD/svg11.dtd">
<svg xmlns="http://www.w3.org/2000/svg" version="1.1" width="761px" height="430px" style="shape-rendering:geometricPrecision; text-rendering:geometricPrecision; image-rendering:optimizeQuality; fill-rule:evenodd; clip-rule:evenodd" xmlns:xlink="http://www.w3.org/1999/xlink">
<g><path style="opacity:0.855" fill="#000000" d="M 319.5,-0.5 C 325.167,-0.5 330.833,-0.5 336.5,-0.5C 347.19,3.09011 358.19,5.92345 369.5,8C 379.343,8.60573 389.176,8.43906 399,7.5C 414.018,7.7132 427.852,11.8799 440.5,20C 449.833,26 459.167,32 468.5,38C 485.154,39.3245 499.821,45.3245 512.5,56C 526.964,68.1281 541.13,80.6281 555,93.5C 561.759,103.829 569.592,113.329 578.5,122C 588.485,126.322 597.818,131.655 606.5,138C 607.635,138.749 608.635,138.583 609.5,137.5C 614.199,129.636 620.866,124.136 629.5,121C 647.976,117.753 666.31,113.753 684.5,109C 695.295,108.096 705.961,108.929 716.5,111.5C 731.687,108.173 744.187,112.507 754,124.5C 756.889,130.015 759.055,135.681 760.5,141.5C 760.5,150.167 760.5,158.833 760.5,167.5C 759.558,172.371 756.891,176.038 752.5,178.5C 750.925,181.985 749.091,185.318 747,188.5C 738.203,195.628 729.703,203.128 721.5,211C 710.43,219.032 698.096,224.032 684.5,226C 691.908,230.073 698.075,235.573 703,242.5C 709.941,251.377 715.608,261.044 720,271.5C 721.157,275.346 719.991,278.179 716.5,280C 719.831,284.655 721.998,289.822 723,295.5C 724.129,313.623 723.129,331.623 720,349.5C 719.563,352.772 717.73,354.439 714.5,354.5C 714.866,363.782 715.866,372.948 717.5,382C 723.874,382.311 730.207,382.977 736.5,384C 734.392,384.36 732.392,385.027 730.5,386C 739.84,386.578 749.173,387.245 758.5,388C 747.732,390.827 736.732,392.827 725.5,394C 736.193,394.746 746.86,395.746 757.5,397C 745.908,398.7 734.242,399.7 722.5,400C 728.914,400.129 735.247,400.796 741.5,402C 719.605,404.758 697.605,405.924 675.5,405.5C 649.563,403.878 623.563,403.378 597.5,404C 579.912,406.057 562.245,407.057 544.5,407C 548.5,407.667 552.5,408.333 556.5,409C 532.5,409.333 508.5,409.667 484.5,410C 489.833,411 495.167,412 500.5,413C 499.833,413.333 499.167,413.667 498.5,414C 488.183,414.911 477.85,415.578 467.5,416C 467.833,416.333 468.167,416.667 468.5,417C 459.929,418.657 451.262,419.657 442.5,420C 445.393,421.149 448.393,421.649 451.5,421.5C 451.5,422.5 451.5,423.5 451.5,424.5C 442.143,424.168 432.81,424.502 423.5,425.5C 424.807,426.865 424.807,428.198 423.5,429.5C 399.833,429.5 376.167,429.5 352.5,429.5C 349.242,428.829 345.909,427.996 342.5,427C 352.5,426.667 362.5,426.333 372.5,426C 362.114,425.743 351.781,424.91 341.5,423.5C 345.044,422.022 348.71,420.855 352.5,420C 345.367,419.315 338.367,417.981 331.5,416C 335.416,414.898 339.416,414.231 343.5,414C 330.467,412.976 317.467,411.642 304.5,410C 304.167,409.667 303.833,409.333 303.5,409C 306.833,408.333 310.167,407.667 313.5,407C 296.842,406.111 280.176,405.445 263.5,405C 263.167,404.667 262.833,404.333 262.5,404C 273.461,402.088 284.461,400.422 295.5,399C 264.168,399.08 232.834,399.08 201.5,399C 206.918,396.416 212.584,394.416 218.5,393C 205.871,393.996 193.204,394.329 180.5,394C 183.339,392.08 186.339,390.413 189.5,389C 173.833,388.667 158.167,388.333 142.5,388C 144.788,387.178 147.122,386.511 149.5,386C 138.5,385.667 127.5,385.333 116.5,385C 124.685,382.934 133.018,381.601 141.5,381C 123.484,380.927 105.484,381.593 87.5,383C 81.809,383.772 76.309,384.938 71,386.5C 65.0936,385.966 59.2603,384.966 53.5,383.5C 49.5163,382.974 46.5163,384.474 44.5,388C 42.1902,388.497 39.8568,388.663 37.5,388.5C 37.5,386.833 37.5,385.167 37.5,383.5C 30.4921,383.666 23.4921,383.5 16.5,383C 17.8333,382.333 19.1667,381.667 20.5,381C 16.1289,380.828 11.7956,380.328 7.5,379.5C 8.02527,378.808 8.69194,378.308 9.5,378C 5.87542,377.434 2.54209,376.268 -0.5,374.5C -0.5,373.167 -0.5,371.833 -0.5,370.5C 1.35943,369.406 3.35943,368.573 5.5,368C 6.80449,367.196 7.47116,366.029 7.5,364.5C -0.477668,341.881 3.85567,322.048 20.5,305C 30.952,297.549 41.1186,289.716 51,281.5C 53.6161,278.271 55.1161,274.604 55.5,270.5C 39.4821,271.989 33.3154,264.989 37,249.5C 43.5568,240.943 51.3901,233.777 60.5,228C 77.4724,213.232 89.3058,195.066 96,173.5C 97.6667,171.833 99.3333,170.167 101,168.5C 114.556,130.64 135.722,97.8069 164.5,70C 182.239,56.4561 201.573,45.4561 222.5,37C 233.001,29.5796 244.001,22.9129 255.5,17C 277.126,11.7629 298.46,5.92959 319.5,-0.5 Z M 320.5,6.5 C 331.67,5.45978 342.336,7.29312 352.5,12C 348.419,13.4715 344.419,15.1382 340.5,17C 331.167,22.6667 321.833,28.3333 312.5,34C 310.167,34.6667 307.833,34.6667 305.5,34C 315.115,30.5295 323.782,25.5295 331.5,19C 331.167,18.8333 330.833,18.6667 330.5,18.5C 320.157,24.3445 309.491,29.5112 298.5,34C 286.341,34.86 274.341,36.6934 262.5,39.5C 258.026,38.2616 253.526,38.2616 249,39.5C 245.601,39.2084 242.768,37.8751 240.5,35.5C 242.478,32.2545 244.478,32.0879 246.5,35C 271.781,35.4123 296.281,30.9123 320,21.5C 321.608,21.0261 321.774,20.3594 320.5,19.5C 297.453,27.4097 273.786,31.9097 249.5,33C 245.777,31.6349 245.777,29.9683 249.5,28C 253.271,25.7813 257.271,24.1146 261.5,23C 281.422,17.9398 301.089,12.4398 320.5,6.5 Z M 431.5,40.5 C 422.486,44.1749 413.819,48.6749 405.5,54C 414.27,51.6311 422.936,48.6311 431.5,45C 434.442,43.8756 437.442,43.5423 440.5,44C 430.14,46.2261 420.806,50.5594 412.5,57C 410.275,58.1306 407.942,58.9639 405.5,59.5C 385.39,55.2774 365.056,53.444 344.5,54C 353.503,53.5525 362.503,53.0525 371.5,52.5C 379.205,53.0955 386.871,53.5955 394.5,54C 386.741,51.2617 378.741,49.595 370.5,49C 358.453,48.5362 346.453,48.8695 334.5,50C 328.031,47.867 323.031,43.867 319.5,38C 320.399,36.7638 321.566,35.9304 323,35.5C 326.525,40.6904 331.025,44.8571 336.5,48C 349.506,47.2477 362.506,46.9143 375.5,47C 373.715,45.8372 371.715,45.1705 369.5,45C 359.148,44.5668 348.815,44.5668 338.5,45C 333.549,42.3824 329.549,38.7158 326.5,34C 327.244,32.9614 328.244,32.4614 329.5,32.5C 338.112,25.1112 348.112,20.2778 359.5,18C 375.057,15.1916 390.724,14.1916 406.5,15C 418.984,16.9097 430.317,21.5763 440.5,29C 432.887,29.6494 425.887,31.9827 419.5,36C 425.881,34.6187 432.381,33.452 439,32.5C 441.898,32.6368 444.731,33.1368 447.5,34C 430.986,35.1707 415.986,40.504 402.5,50C 411.914,46.3623 421.581,43.1957 431.5,40.5 Z M 251.5,42.5 C 248.23,44.4741 244.897,46.4741 241.5,48.5C 238.979,45.1458 235.979,42.3124 232.5,40C 233.263,39.0565 234.263,38.5565 235.5,38.5C 240.479,41.2713 245.813,42.6046 251.5,42.5 Z M 285.5,42.5 C 289.514,42.3345 293.514,42.5012 297.5,43C 301.279,49.1117 305.445,54.9451 310,60.5C 310.854,63.4066 310.021,65.7399 307.5,67.5C 309.718,68.1877 311.218,67.1877 312,64.5C 312.667,62.5 312.667,60.5 312,58.5C 308.376,53.4198 304.876,48.2532 301.5,43C 302.833,42.3333 304.167,42.3333 305.5,43C 308.699,46.5662 311.533,50.3996 314,54.5C 316.383,57.2728 319.217,59.4395 322.5,61C 297.33,85.8157 277.997,114.649 264.5,147.5C 238.036,152.976 212.036,150.976 186.5,141.5C 186.167,140.667 185.833,139.833 185.5,139C 188.134,130.565 191.968,122.731 197,115.5C 211.669,93.8313 228.169,73.6647 246.5,55C 250.007,52.746 253.673,50.746 257.5,49C 266.837,46.2852 276.171,44.1186 285.5,42.5 Z M 311.5,45.5 C 311.897,44.475 312.563,44.3083 313.5,45C 317.85,49.4189 322.184,53.7522 326.5,58C 325.407,59.3654 324.074,59.6987 322.5,59C 319.173,54.1545 315.507,49.6545 311.5,45.5 Z M 231.5,56.5 C 231.657,55.1266 231.49,53.7932 231,52.5C 229.081,50.3089 227.747,47.9755 227,45.5C 230.218,46.6815 232.718,48.6815 234.5,51.5C 233.725,53.3964 232.725,55.063 231.5,56.5 Z M 220.5,69.5 C 222.745,65.3388 224.745,61.0055 226.5,56.5C 224.559,53.6658 221.893,52.8325 218.5,54C 221.591,54.691 222.757,56.5243 222,59.5C 211.752,74.328 201.752,89.328 192,104.5C 182.367,123.569 174.2,143.236 167.5,163.5C 158.059,167.152 148.392,169.652 138.5,171C 146.629,169.179 154.296,166.179 161.5,162C 160.833,161.833 160.167,161.667 159.5,161.5C 143.616,167.986 127.282,169.819 110.5,167C 111,166.5 111.5,166 112,165.5C 129.276,167.982 145.776,165.315 161.5,157.5C 162.521,156.998 162.688,156.332 162,155.5C 145.928,162.101 129.428,163.934 112.5,161C 113.944,159.936 115.611,159.436 117.5,159.5C 134.616,161.203 150.949,158.37 166.5,151C 154.135,153.337 141.635,155.17 129,156.5C 124.43,156.283 119.93,155.616 115.5,154.5C 135.183,155.33 153.85,151.497 171.5,143C 161.206,144.819 150.873,146.819 140.5,149C 133.144,149.831 125.811,149.665 118.5,148.5C 119.214,146.189 120.214,144.022 121.5,142C 145.473,142.239 165.807,133.905 182.5,117C 181.833,116.833 181.167,116.667 180.5,116.5C 171.489,123.01 161.822,128.51 151.5,133C 144.99,135.294 138.323,136.961 131.5,138C 128.621,138.874 125.955,138.54 123.5,137C 125.108,133.728 127.108,130.728 129.5,128C 151.15,129.454 169.317,122.287 184,106.5C 184.667,105.833 184.667,105.167 184,104.5C 179.399,108.213 174.565,111.547 169.5,114.5C 169.631,113.761 169.464,113.094 169,112.5C 158.591,119.231 147.425,121.064 135.5,118C 149.787,94.7129 168.454,75.7129 191.5,61C 201.378,55.8943 211.378,51.0609 221.5,46.5C 230.673,54.4035 230.339,62.0702 220.5,69.5 Z M 531.5,100.5 C 511.192,101.837 490.859,102.671 470.5,103C 476.923,104.105 483.423,104.605 490,104.5C 498.515,104.151 507.015,103.984 515.5,104C 499.863,105.665 484.197,106.998 468.5,108C 487.874,108.648 507.207,108.315 526.5,107C 506.225,109.362 485.892,111.029 465.5,112C 493.887,114.58 522.054,113.08 550,107.5C 551.898,108.352 551.731,109.019 549.5,109.5C 541.245,111.431 532.911,112.931 524.5,114C 504.416,115.004 484.416,116.671 464.5,119C 490.844,118.733 517.178,118.066 543.5,117C 532.876,119.215 522.209,121.215 511.5,123C 515.5,123.333 519.5,123.667 523.5,124C 507.167,124.333 490.833,124.667 474.5,125C 466.499,126.05 458.499,126.716 450.5,127C 443.435,103.534 432.435,82.2005 417.5,63C 438.604,50.5794 461.27,46.246 485.5,50C 490.892,51.5297 495.892,53.863 500.5,57C 517.183,69.5073 532.85,83.1739 547.5,98C 543.196,99.6646 538.696,100.831 534,101.5C 532.93,101.472 532.097,101.139 531.5,100.5 Z M 401.5,76.5 C 393.577,70.4126 384.577,67.0793 374.5,66.5C 384.509,69.2853 393.842,73.6187 402.5,79.5C 402.5,78.8333 402.5,78.1667 402.5,77.5C 404.81,80.1019 406.643,83.1019 408,86.5C 410.867,95.0033 413.033,103.67 414.5,112.5C 415.561,102.197 414.228,92.1967 410.5,82.5C 417.769,93.3927 422.603,105.393 425,118.5C 425.346,106.55 422.846,95.2162 417.5,84.5C 423.602,92.8158 428.769,101.816 433,111.5C 433.49,110.207 433.657,108.873 433.5,107.5C 437.06,114.153 440.06,121.153 442.5,128.5C 441.687,129.814 440.687,130.981 439.5,132C 413.282,147.776 385.949,161.442 357.5,173C 340.372,179.217 322.705,181.217 304.5,179C 293.963,178.558 283.63,176.891 273.5,174C 271.893,172.951 271.227,171.451 271.5,169.5C 321.881,180.49 368.548,171.823 411.5,143.5C 411.167,143.167 410.833,142.833 410.5,142.5C 389.913,154.626 367.913,163.126 344.5,168C 320.384,170.452 296.384,169.618 272.5,165.5C 272.155,162.512 273.488,161.179 276.5,161.5C 316.017,172.257 353.684,167.757 389.5,148C 391.396,146.935 391.563,146.102 390,145.5C 352.895,164.511 314.728,167.677 275.5,155C 275.688,153.118 276.688,151.952 278.5,151.5C 308.686,161.246 338.686,160.746 368.5,150C 357.242,151.782 345.909,153.449 334.5,155C 315.872,155.821 297.538,153.821 279.5,149C 279.043,148.586 278.709,148.086 278.5,147.5C 289.961,121.894 304.461,98.227 322,76.5C 327.993,69.5874 335.493,65.4207 344.5,64C 356.868,63.1851 369.201,63.5185 381.5,65C 390.538,65.0103 397.205,68.8436 401.5,76.5 Z M 220.5,69.5 C 220.573,71.0269 219.906,72.0269 218.5,72.5C 218.427,70.9731 219.094,69.9731 220.5,69.5 Z M 692.5,114.5 C 699.058,113.81 705.725,114.31 712.5,116C 712.727,117.135 713.06,118.302 713.5,119.5C 716.387,117.889 719.387,116.556 722.5,115.5C 729.207,117.333 735.874,119.166 742.5,121C 735.124,127.468 726.624,129.968 717,128.5C 714.469,124.646 711.969,120.813 709.5,117C 703.871,115.84 698.204,115.007 692.5,114.5 Z M 718.5,201.5 C 718.607,203.903 717.607,205.736 715.5,207C 712.273,209.112 708.94,210.945 705.5,212.5C 707.054,211.105 706.721,210.439 704.5,210.5C 698.251,212.313 691.917,213.646 685.5,214.5C 669.919,218.405 654.919,216.572 640.5,209C 636.701,206.203 633.201,203.036 630,199.5C 626.279,192.335 622.946,185.002 620,177.5C 620.51,189.866 625.01,200.533 633.5,209.5C 626.74,205.566 621.907,199.9 619,192.5C 616.028,183.091 614.695,173.425 615,163.5C 612.825,168.026 611.658,172.86 611.5,178C 612.45,185.938 613.617,193.771 615,201.5C 607.886,204.947 602.386,210.114 598.5,217C 599.167,217.667 599.833,217.667 600.5,217C 602.37,214.96 604.37,213.127 606.5,211.5C 603.154,217.359 598.82,222.526 593.5,227C 602.352,224.375 609.352,219.042 614.5,211C 613.833,210.667 613.167,210.333 612.5,210C 614.609,208.859 616.442,207.359 618,205.5C 620.167,207.667 622.333,209.833 624.5,212C 616.95,216.55 611.116,222.717 607,230.5C 603.333,234.167 599.667,237.833 596,241.5C 595.333,242.167 595.333,242.833 596,243.5C 599.216,241.807 602.383,239.973 605.5,238C 611.636,232.044 617.302,225.71 622.5,219C 624.044,217.813 625.711,217.48 627.5,218C 624.833,220.667 622.167,223.333 619.5,226C 620,226.167 620.5,226.333 621,226.5C 624.046,223.894 627.546,222.227 631.5,221.5C 612.086,243.383 588.086,257.883 559.5,265C 556.333,265.167 553.167,265.333 550,265.5C 538.831,264.233 527.664,262.9 516.5,261.5C 513.833,261.667 511.167,261.833 508.5,262C 503.339,263.172 498.339,264.505 493.5,266C 496.153,264.345 498.486,262.345 500.5,260C 505.453,259.005 510.453,258.338 515.5,258C 510.917,256.855 506.251,256.189 501.5,256C 506.916,255.841 512.25,255.174 517.5,254C 513.205,253.088 508.872,252.421 504.5,252C 518.5,251.667 532.5,251.333 546.5,251C 557.711,250.263 568.044,246.929 577.5,241C 573.598,241.902 569.598,242.735 565.5,243.5C 566.6,242.442 567.934,241.608 569.5,241C 568.833,240.833 568.167,240.667 567.5,240.5C 550.724,244.555 533.724,246.055 516.5,245C 519.877,244.548 523.211,243.882 526.5,243C 520.833,242.667 515.167,242.333 509.5,242C 514.5,241.667 519.5,241.333 524.5,241C 523.833,240.667 523.167,240.333 522.5,240C 525.471,239.206 528.471,238.539 531.5,238C 527.833,237.667 524.167,237.333 520.5,237C 524.471,236.915 528.138,235.915 531.5,234C 526.5,233.667 521.5,233.333 516.5,233C 518.167,232.667 519.833,232.333 521.5,232C 511.865,230.922 502.199,230.255 492.5,230C 502.537,229.796 512.537,229.129 522.5,228C 522.833,227.667 523.167,227.333 523.5,227C 515.124,226.787 506.79,226.121 498.5,225C 504.167,224.667 509.833,224.333 515.5,224C 511.827,222.639 508.16,221.473 504.5,220.5C 521.258,222.094 537.925,221.427 554.5,218.5C 550.131,220.796 545.464,222.629 540.5,224C 563.091,222.952 580.924,213.118 594,194.5C 602.054,181.394 608.721,167.727 614,153.5C 613,154.5 612,155.5 611,156.5C 606.645,165.224 601.812,173.557 596.5,181.5C 599.23,174.817 602.063,168.15 605,161.5C 605.667,160.5 605.667,159.5 605,158.5C 597.836,171.499 590.169,184.166 582,196.5C 566.858,212.877 548.358,218.377 526.5,213C 515.726,210.906 505.393,207.739 495.5,203.5C 497.262,203.357 498.929,203.691 500.5,204.5C 501.293,203.645 500.96,202.811 499.5,202C 507.346,203.418 515.179,205.252 523,207.5C 524.684,207.317 524.85,206.65 523.5,205.5C 530.503,206.834 537.503,208.167 544.5,209.5C 545.696,209.154 545.696,208.654 544.5,208C 538.5,206 532.5,204 526.5,202C 533.94,202.698 541.44,203.198 549,203.5C 553.585,203.569 558.085,203.069 562.5,202C 549.936,200.851 537.603,198.517 525.5,195C 527.167,194.667 528.833,194.333 530.5,194C 528.365,192.619 526.032,191.619 523.5,191C 527.157,191.108 530.823,191.108 534.5,191C 533.377,189.956 532.044,189.29 530.5,189C 531.667,188.833 532.833,188.667 534,188.5C 546.295,190.239 558.462,189.739 570.5,187C 574.828,185.171 578.828,182.838 582.5,180C 595.5,167.676 607,154.176 617,139.5C 623.121,132.523 630.621,127.69 639.5,125C 652.848,123.464 665.848,120.798 678.5,117C 668.389,125.034 666.889,134.534 674,145.5C 676.264,148.433 679.098,150.6 682.5,152C 681.167,152.333 679.833,152.667 678.5,153C 682.146,155.248 686.146,156.582 690.5,157C 682.679,162.488 675.846,168.988 670,176.5C 669.333,179.5 669.333,182.5 670,185.5C 671.167,183 673,181.167 675.5,180C 695.022,180.878 714.189,178.711 733,173.5C 737.381,174.119 741.215,175.786 744.5,178.5C 743.624,183.542 740.624,186.375 735.5,187C 729.764,188.65 723.931,189.817 718,190.5C 708.832,188.287 699.665,188.12 690.5,190C 691.5,190.333 692.5,190.667 693.5,191C 685.626,192.977 677.793,192.811 670,190.5C 668.967,190.548 668.634,190.881 669,191.5C 670.171,192.893 671.671,193.727 673.5,194C 683.51,194.63 693.51,194.463 703.5,193.5C 706.924,193.482 710.257,193.982 713.5,195C 702.704,198.459 691.704,200.959 680.5,202.5C 676.845,201.668 673.179,200.835 669.5,200C 663.293,196.397 656.96,193.064 650.5,190C 647.5,189.333 644.5,189.333 641.5,190C 649.4,192.95 656.733,196.95 663.5,202C 669.958,204.521 676.624,205.521 683.5,205C 692.776,202.848 702.109,201.014 711.5,199.5C 714.857,199.264 717.19,199.93 718.5,201.5 Z M 696.5,127.5 C 699.989,128.689 700.322,127.855 697.5,125C 693.278,121.889 688.611,120.889 683.5,122C 687.688,122.434 691.355,123.934 694.5,126.5C 687.619,124.897 681.285,126.231 675.5,130.5C 674.956,125.772 676.956,122.272 681.5,120C 692.651,117.564 702.818,119.73 712,126.5C 714.76,130.404 715.594,134.57 714.5,139C 713.128,139.402 711.795,139.902 710.5,140.5C 705.813,136.145 701.146,131.812 696.5,127.5 Z M 132.5,121.5 C 139.843,122.663 147.176,122.83 154.5,122C 147.32,124.275 139.987,124.942 132.5,124C 131.402,123.23 131.402,122.397 132.5,121.5 Z M 751.5,134.5 C 752.913,137.219 753.58,140.219 753.5,143.5C 748.787,143.81 745.12,141.977 742.5,138C 740.956,136.813 739.289,136.48 737.5,137C 740.857,141.373 745.024,144.54 750,146.5C 752.201,145.145 753.868,145.478 755,147.5C 755.667,153.167 755.667,158.833 755,164.5C 754.647,167.539 753.48,170.205 751.5,172.5C 746.479,169.216 740.979,167.882 735,168.5C 722.782,170.261 710.615,172.428 698.5,175C 690.851,176.055 683.185,176.388 675.5,176C 678.833,171.333 682.833,167.333 687.5,164C 695.221,159.473 703.221,155.473 711.5,152C 717.582,146.924 720.249,140.424 719.5,132.5C 728.843,132.375 737.343,129.709 745,124.5C 748.64,126.955 750.807,130.289 751.5,134.5 Z M 549.5,139.5 C 551.085,138.998 551.585,137.998 551,136.5C 548.833,135 546.667,133.5 544.5,132C 552.27,129.913 560.103,128.079 568,126.5C 581.049,130.44 592.882,136.607 603.5,145C 601.925,148.242 599.425,150.409 596,151.5C 583.634,148.58 571.134,146.413 558.5,145C 554.8,144.157 551.8,142.324 549.5,139.5 Z M 488.5,133.5 C 478.366,133.313 468.366,134.313 458.5,136.5C 458.667,136.833 458.833,137.167 459,137.5C 465.238,136.417 471.572,135.75 478,135.5C 489.203,136.197 500.369,137.197 511.5,138.5C 508.833,137.5 506.167,136.5 503.5,135.5C 511.525,136.705 519.525,138.038 527.5,139.5C 523.814,137.205 519.814,135.372 515.5,134C 520.157,133.96 524.824,134.294 529.5,135C 532.13,138.632 535.13,141.965 538.5,145C 511.829,162.34 484.495,178.673 456.5,194C 440.01,193.987 428.843,186.154 423,170.5C 420.678,164.908 419.512,159.241 419.5,153.5C 430.097,146.034 441.43,139.867 453.5,135C 465.234,132.47 476.9,131.97 488.5,133.5 Z M 709.5,144.5 C 707.88,146.984 705.547,148.484 702.5,149C 689.204,153.195 679.871,149.028 674.5,136.5C 675.002,135.479 675.668,135.312 676.5,136C 679.751,141.294 684.417,144.627 690.5,146C 696.853,146.022 703.187,145.522 709.5,144.5 Z M 269.5,145.5 C 266.949,154.33 263.949,162.83 260.5,171C 255.53,172.081 250.53,172.414 245.5,172C 248.833,171 252.167,170 255.5,169C 229.174,172.358 203.841,168.858 179.5,158.5C 178.344,157.424 178.511,156.424 180,155.5C 200.805,165.369 222.638,168.536 245.5,165C 250.4,164.478 255.066,163.145 259.5,161C 233.12,164.351 207.454,161.351 182.5,152C 181.833,151.333 181.167,150.667 180.5,150C 181.861,148.416 182.528,146.582 182.5,144.5C 207.287,154.979 232.954,157.812 259.5,153C 263.442,151.208 266.776,148.708 269.5,145.5 Z M 414.5,155.5 C 415.79,156.058 416.623,157.058 417,158.5C 418.624,173.271 425.457,184.771 437.5,193C 441.683,194.796 446.016,196.129 450.5,197C 448.305,198.373 445.971,198.706 443.5,198C 427.053,189.8 415.386,177.133 408.5,160C 410.358,158.245 412.358,156.745 414.5,155.5 Z M 400.5,162.5 C 401.822,162.33 402.989,162.663 404,163.5C 409.859,180.889 420.692,194.222 436.5,203.5C 411.216,220.059 385.383,235.726 359,250.5C 354.612,246.778 350.945,242.445 348,237.5C 343.387,226.12 345.887,216.62 355.5,209C 361.779,205.054 367.779,200.721 373.5,196C 363.504,199.267 354.671,204.767 347,212.5C 345.25,215.246 344.25,218.246 344,221.5C 343.667,228.5 343.333,235.5 343,242.5C 340.733,231.726 341.066,221.059 344,210.5C 359.939,197.276 377.773,187.276 397.5,180.5C 401.913,189.465 407.913,197.298 415.5,204C 416.167,204.667 416.833,204.667 417.5,204C 411.167,195.667 404.833,187.333 398.5,179C 377.434,182.95 358.934,192.116 343,206.5C 339.576,214.784 337.91,223.451 338,232.5C 337.355,223.801 337.688,215.135 339,206.5C 342.112,199.721 346.945,194.555 353.5,191C 367.59,183.304 382.257,176.971 397.5,172C 389.162,172.418 381.162,174.418 373.5,178C 362.436,182.946 351.936,188.779 342,195.5C 341.592,192.064 342.759,189.23 345.5,187C 364.395,179.881 382.729,171.715 400.5,162.5 Z M 167.5,173.5 C 170.607,173.351 173.607,173.851 176.5,175C 184.594,178.921 192.928,182.254 201.5,185C 200.91,186.509 200.244,188.009 199.5,189.5C 189.404,184.468 178.737,181.468 167.5,180.5C 158.258,181.352 149.425,183.685 141,187.5C 140.28,185.888 140.446,184.388 141.5,183C 150.446,180.299 159.113,177.132 167.5,173.5 Z M 100.5,181.5 C 103.168,181.834 105.168,183.167 106.5,185.5C 103.364,186.248 101.364,184.915 100.5,181.5 Z M 265.5,288.5 C 262.354,281.975 260.521,274.975 260,267.5C 259.077,253.513 258.411,239.513 258,225.5C 253.946,248.432 255.113,271.099 261.5,293.5C 258.08,288.419 255.913,282.753 255,276.5C 253.031,264.253 252.031,251.92 252,239.5C 247.346,259.757 249.846,279.091 259.5,297.5C 259.333,297.833 259.167,298.167 259,298.5C 255.067,294.971 252.4,290.637 251,285.5C 249.264,275.087 247.597,264.754 246,254.5C 244.073,268.864 245.907,282.864 251.5,296.5C 248.769,294.929 246.935,292.595 246,289.5C 244.773,283.138 243.44,276.805 242,270.5C 240.578,279.906 241.745,288.906 245.5,297.5C 244.504,297.586 243.671,297.252 243,296.5C 239.405,289.279 237.405,281.612 237,273.5C 235.496,277.039 235.163,280.705 236,284.5C 236.806,289.418 238.306,294.085 240.5,298.5C 238.321,298.16 236.488,297.16 235,295.5C 233.587,292.339 231.92,289.339 230,286.5C 229.118,290.531 229.951,294.198 232.5,297.5C 230.671,298.282 229.171,297.616 228,295.5C 225.405,290.049 223.405,284.382 222,278.5C 220.693,285.332 221.86,291.665 225.5,297.5C 222.126,295.12 219.96,291.787 219,287.5C 217.948,281.883 217.282,276.216 217,270.5C 213.899,276.858 213.732,283.358 216.5,290C 216.056,291.762 215.556,291.595 215,289.5C 212.953,280.642 211.953,271.642 212,262.5C 210.3,266.135 209.467,269.968 209.5,274C 210.06,277.842 210.227,281.676 210,285.5C 208.779,273.881 208.112,262.215 208,250.5C 207.161,255.227 206.161,259.894 205,264.5C 205.63,250.795 206.297,237.128 207,223.5C 202.793,240.836 200.96,258.503 201.5,276.5C 198.935,266.11 198.102,255.443 199,244.5C 200.365,224.976 203.032,205.643 207,186.5C 224.513,185.589 242.013,183.923 259.5,181.5C 267.147,181.912 274.481,183.579 281.5,186.5C 264.397,218.662 259.063,252.662 265.5,288.5 Z M 568.5,182.5 C 564.466,184.964 559.966,185.964 555,185.5C 550.867,185.714 547.034,185.048 543.5,183.5C 551.867,183.705 560.2,183.371 568.5,182.5 Z M 129.5,183.5 C 132.397,183.125 135.063,183.625 137.5,185C 136.773,186.399 136.273,187.899 136,189.5C 134.581,188.54 133.081,187.707 131.5,187C 125.415,186.139 119.415,186.473 113.5,188C 120.712,188.016 127.712,189.183 134.5,191.5C 135.774,192.359 135.608,193.026 134,193.5C 126.247,189.698 118.414,189.531 110.5,193C 116.914,193.129 123.247,193.796 129.5,195C 134.259,195.843 135.259,198.01 132.5,201.5C 125.452,195.487 117.452,193.987 108.5,197C 115.847,197.529 122.847,199.529 129.5,203C 131.124,204.117 132.124,205.617 132.5,207.5C 131.981,210.601 131.147,213.601 130,216.5C 126.499,213.083 122.499,210.416 118,208.5C 113.542,207.421 109.042,207.254 104.5,208C 114.402,209.785 123.068,213.952 130.5,220.5C 127.353,236.052 124.853,251.719 123,267.5C 123.083,257.503 123.083,247.503 123,237.5C 120.375,250.367 118.709,263.367 118,276.5C 117.667,267.833 117.333,259.167 117,250.5C 115.268,260.823 113.601,271.156 112,281.5C 110.892,277.914 110.392,274.247 110.5,270.5C 109.5,270.5 108.5,270.5 107.5,270.5C 107.665,274.182 107.499,277.848 107,281.5C 106.767,279.22 105.934,277.22 104.5,275.5C 103.729,277.862 102.895,280.196 102,282.5C 101.252,280.668 100.252,279.001 99,277.5C 98.5739,280.761 96.7406,282.428 93.5,282.5C 86.0581,281.723 79.0581,279.557 72.5,276C 70.9903,274.649 69.9903,272.982 69.5,271C 80.3598,251.451 90.8598,231.618 101,211.5C 104.598,202.873 108.098,194.207 111.5,185.5C 117.654,184.833 123.654,184.167 129.5,183.5 Z M 187.5,274.5 C 185.423,265.091 184.256,255.425 184,245.5C 181.92,257.56 182.253,269.56 185,281.5C 186.707,287.276 188.374,292.943 190,298.5C 187.597,296.695 185.93,294.362 185,291.5C 182.038,282.318 179.705,272.985 178,263.5C 177.179,275.251 179.012,286.585 183.5,297.5C 181.671,298.282 180.171,297.616 179,295.5C 176.405,290.049 174.405,284.382 173,278.5C 171.948,284.768 172.782,290.768 175.5,296.5C 174.349,297.731 173.183,297.731 172,296.5C 169.54,290.993 167.54,285.327 166,279.5C 165.181,285.155 165.681,290.655 167.5,296C 164.968,296.167 163.134,295 162,292.5C 161.466,288.695 160.466,285.029 159,281.5C 157.476,286.096 157.309,290.762 158.5,295.5C 156.089,295.863 154.589,294.863 154,292.5C 153.333,287.833 152.667,283.167 152,278.5C 150.877,282.587 150.044,286.754 149.5,291C 150.577,293.564 149.744,294.064 147,292.5C 147.213,271.758 145.713,271.424 142.5,291.5C 141.914,291.291 141.414,290.957 141,290.5C 141,281.833 141,273.167 141,264.5C 139.451,271.791 138.118,279.125 137,286.5C 138.059,272.535 138.392,258.535 138,244.5C 136.244,258.22 134.244,271.886 132,285.5C 131.121,262.711 132.454,240.044 136,217.5C 138.713,215.87 141.713,214.87 145,214.5C 148.128,215.204 151.294,215.704 154.5,216C 165.498,219.685 176.498,223.018 187.5,226C 172.134,214.929 155.134,210.762 136.5,213.5C 136.104,210.956 136.771,208.789 138.5,207C 146.813,205.14 155.147,205.14 163.5,207C 172.167,209.667 180.833,212.333 189.5,215C 191.259,215.798 192.926,215.631 194.5,214.5C 183.754,208.973 172.42,205.14 160.5,203C 153.392,202.174 146.392,202.674 139.5,204.5C 137.084,202.024 137.084,199.357 139.5,196.5C 148.626,193.659 157.96,192.826 167.5,194C 176.793,197.101 186.126,199.768 195.5,202C 185.664,193.924 174.331,190.091 161.5,190.5C 154.531,190.615 147.698,191.615 141,193.5C 139.274,192.352 139.441,191.185 141.5,190C 149.937,186.91 158.603,184.743 167.5,183.5C 178.12,185.029 188.287,188.029 198,192.5C 196.995,205.207 195.328,217.874 193,230.5C 192.075,240.148 191.408,249.815 191,259.5C 190.194,250.119 190.36,240.785 191.5,231.5C 191.154,230.304 190.654,230.304 190,231.5C 187.761,245.735 186.927,260.068 187.5,274.5 Z M 98.5,186.5 C 100.426,187.242 102.259,188.242 104,189.5C 104.563,190.725 104.23,191.725 103,192.5C 101.846,191.257 100.512,190.257 99,189.5C 98.5172,188.552 98.3505,187.552 98.5,186.5 Z M 335.5,257.5 C 333.871,256.375 332.371,255.041 331,253.5C 326.718,240.855 325.384,227.855 327,214.5C 327.892,208.389 328.892,202.389 330,196.5C 326.132,203.294 323.798,210.627 323,218.5C 321.468,231.185 322.801,243.518 327,255.5C 328.833,258.667 331.333,261.167 334.5,263C 333.584,263.374 332.75,263.874 332,264.5C 326.668,260.521 323.335,255.188 322,248.5C 320.972,242.799 319.805,237.132 318.5,231.5C 316.463,244.376 319.13,256.21 326.5,267C 325.167,267.667 323.833,267.667 322.5,267C 320.954,264.743 319.288,262.576 317.5,260.5C 316.743,264.07 317.743,267.236 320.5,270C 320,270.5 319.5,271 319,271.5C 315.708,267.19 314.374,267.523 315,272.5C 312.546,276.336 310.212,276.336 308,272.5C 307.885,275.008 306.885,277.008 305,278.5C 303.305,276.768 301.972,274.768 301,272.5C 300.818,275.226 300.318,277.893 299.5,280.5C 298.029,279.619 297.196,278.286 297,276.5C 296.821,273.447 296.321,270.447 295.5,267.5C 294.582,269.758 293.915,272.091 293.5,274.5C 294.331,276.473 294.498,278.473 294,280.5C 293.333,279.167 292.667,277.833 292,276.5C 291.852,270.751 291.186,265.085 290,259.5C 288.848,265.77 288.182,272.103 288,278.5C 285.974,266.099 286.474,253.765 289.5,241.5C 289.333,240.5 289.167,239.5 289,238.5C 288.392,240.066 287.558,241.4 286.5,242.5C 287.845,234.628 290.845,227.461 295.5,221C 302.833,218.667 310.167,216.333 317.5,214C 308.509,213.539 300.009,215.373 292,219.5C 283.617,234.359 278.95,250.359 278,267.5C 277.031,249.985 280.364,233.318 288,217.5C 289.731,215.383 291.898,213.883 294.5,213C 302.788,211.387 311.121,210.054 319.5,209C 321.271,208.465 321.604,207.631 320.5,206.5C 312.135,207.282 303.802,208.448 295.5,210C 291.363,210.651 287.863,212.485 285,215.5C 278.189,228.746 273.856,242.746 272,257.5C 271.776,239.619 274.776,222.286 281,205.5C 284.59,203.642 288.424,202.476 292.5,202C 300.797,200.708 309.13,199.708 317.5,199C 305.782,196.642 294.282,197.475 283,201.5C 283.52,188.962 290.02,184.295 302.5,187.5C 313.528,187.735 324.528,188.401 335.5,189.5C 329.626,207.82 328.126,226.486 331,245.5C 332.219,249.662 333.719,253.662 335.5,257.5 Z M 96.5,191.5 C 100.779,192.611 102.279,195.277 101,199.5C 98.6963,197.22 97.1963,194.554 96.5,191.5 Z M 94.5,196.5 C 96.1482,198.429 97.8149,200.429 99.5,202.5C 98.6667,204.167 97.8333,205.833 97,207.5C 95.0863,205.252 93.5863,202.752 92.5,200C 92.9783,198.697 93.645,197.531 94.5,196.5 Z M 90.5,203.5 C 95.0138,206.156 96.1805,209.823 94,214.5C 85.6667,227.5 77.3333,240.5 69,253.5C 64.8392,259.413 59.1725,262.746 52,263.5C 43.5034,262.167 41.1701,257.834 45,250.5C 56.927,241.244 68.2603,231.244 79,220.5C 81.3773,216.912 83.8773,213.412 86.5,210C 88.3914,209.691 89.7248,210.525 90.5,212.5C 90.8333,212.167 91.1667,211.833 91.5,211.5C 89.5221,208.957 89.1887,206.29 90.5,203.5 Z M 634.5,210.5 C 636.027,210.427 637.027,211.094 637.5,212.5C 635.973,212.573 634.973,211.906 634.5,210.5 Z M 700.5,214.5 C 691.922,217.93 682.922,219.43 673.5,219C 682.586,217.93 691.586,216.43 700.5,214.5 Z M 435.5,224.5 C 438.102,222.19 441.102,220.357 444.5,219C 442.866,218.506 441.199,218.34 439.5,218.5C 448.417,215.306 457.084,216.14 465.5,221C 469.936,225.27 468.936,227.436 462.5,227.5C 457.578,225.517 453.411,226.517 450,230.5C 449.544,231.744 450.044,232.577 451.5,233C 448.767,236.418 447.434,236.251 447.5,232.5C 446.05,233.655 445.05,235.155 444.5,237C 442.919,237.707 441.419,238.54 440,239.5C 436.475,247.362 432.808,255.029 429,262.5C 426.686,265.067 424.519,267.733 422.5,270.5C 423.262,270.911 424.262,271.077 425.5,271C 423.323,275.021 420.656,278.688 417.5,282C 419.167,282.333 420.833,282.667 422.5,283C 420.167,284 417.833,285 415.5,286C 413.167,289.667 410.833,293.333 408.5,297C 401.506,298.787 399.673,296.954 403,291.5C 405.158,290.174 406.992,288.507 408.5,286.5C 404.291,280.749 404.791,275.416 410,270.5C 413.901,260.125 418.568,250.125 424,240.5C 432.459,230.014 443.292,223.181 456.5,220C 453.167,219.333 449.833,219.333 446.5,220C 442.812,221.513 439.145,223.013 435.5,224.5 Z M 435.5,224.5 C 429.995,229.998 423.662,234.331 416.5,237.5C 421.389,231.313 427.723,226.98 435.5,224.5 Z M 637.5,227.5 C 623.738,245.593 606.071,258.259 584.5,265.5C 593.557,261.469 602.223,256.636 610.5,251C 619.687,243.308 628.687,235.475 637.5,227.5 Z M 456.5,228.5 C 460.253,229.486 460.253,230.819 456.5,232.5C 452.816,231.456 452.816,230.122 456.5,228.5 Z M 468.5,228.5 C 471.924,228.698 472.758,230.032 471,232.5C 469.519,231.529 468.685,230.196 468.5,228.5 Z M 463.5,229.5 C 466.389,229.999 467.056,231.499 465.5,234C 459.51,234.823 458.843,233.323 463.5,229.5 Z M 675.5,230.5 C 675.56,229.957 675.893,229.624 676.5,229.5C 681.456,231.753 683.456,235.42 682.5,240.5C 681.252,241.04 680.085,241.707 679,242.5C 677.204,239.073 675.037,235.906 672.5,233C 673.833,232.333 675.167,231.667 676.5,231C 676.272,230.601 675.938,230.435 675.5,230.5 Z M 665.5,230.5 C 666.833,230.5 668.167,230.5 669.5,230.5C 668.133,235.007 665.799,235.507 662.5,232C 663.737,231.768 664.737,231.268 665.5,230.5 Z M 469.5,234.5 C 472.596,233.907 474.929,234.907 476.5,237.5C 474.235,238.647 471.902,238.814 469.5,238C 468.316,236.855 468.316,235.688 469.5,234.5 Z M 452.5,235.5 C 457.499,235.891 457.666,237.225 453,239.5C 449.985,238.641 449.819,237.308 452.5,235.5 Z M 658.5,235.5 C 661.524,235.364 663.024,236.698 663,239.5C 660.891,239.566 658.725,239.899 656.5,240.5C 656.167,240.167 655.833,239.833 655.5,239.5C 656.524,238.148 657.524,236.815 658.5,235.5 Z M 687.5,235.5 C 689.963,237.461 692.297,239.628 694.5,242C 689.782,242.45 687.449,240.283 687.5,235.5 Z M 461.5,236.5 C 464.764,236.726 465.764,238.226 464.5,241C 458.292,242.006 457.292,240.506 461.5,236.5 Z M 668.5,236.5 C 673.155,238.275 675.488,241.441 675.5,246C 667.332,246.66 664.998,243.494 668.5,236.5 Z M 442.5,242.5 C 443.315,240.092 444.981,239.259 447.5,240C 446.09,241.372 444.423,242.205 442.5,242.5 Z M 469.5,240.5 C 475.215,240.215 477.882,242.882 477.5,248.5C 472.863,249.558 469.53,248.058 467.5,244C 467.978,242.697 468.645,241.531 469.5,240.5 Z M 478.5,240.5 C 484.586,241.413 487.253,244.747 486.5,250.5C 481.977,248.645 479.311,245.311 478.5,240.5 Z M 631.5,240.5 C 629.171,242.837 627.671,245.504 627,248.5C 628.498,246.386 630.331,245.886 632.5,247C 634.996,245.334 637.329,243.5 639.5,241.5C 622.419,263.193 600.085,276.193 572.5,280.5C 565.353,280.081 559.019,277.748 553.5,273.5C 573.47,274.571 591.803,269.404 608.5,258C 616.346,252.31 624.013,246.477 631.5,240.5 Z M 346.5,241.5 C 348.471,243.808 350.471,246.142 352.5,248.5C 349.054,247.388 347.054,245.055 346.5,241.5 Z M 417.5,241.5 C 415.68,245.14 413.847,248.807 412,252.5C 405.431,256.997 404.097,255.663 408,248.5C 410.501,245.152 413.668,242.818 417.5,241.5 Z M 450.5,241.5 C 454.876,240.888 455.543,242.054 452.5,245C 450.975,246.009 449.308,246.509 447.5,246.5C 447.31,244.041 448.31,242.374 450.5,241.5 Z M 682.5,242.5 C 687.886,242.377 691.053,245.044 692,250.5C 692.494,252.134 692.66,253.801 692.5,255.5C 685.756,256.103 681.423,253.103 679.5,246.5C 680.524,245.148 681.524,243.815 682.5,242.5 Z M 458.5,243.5 C 464.388,243.73 465.888,246.397 463,251.5C 459.022,254.421 455.522,253.921 452.5,250C 454.027,247.31 456.027,245.143 458.5,243.5 Z M 648.5,245.5 C 649.314,243.727 650.648,243.227 652.5,244C 651.437,245.188 650.103,245.688 648.5,245.5 Z M 656.5,243.5 C 661.922,242.58 663.588,244.58 661.5,249.5C 655.41,250.369 653.743,248.369 656.5,243.5 Z M 441.5,245.5 C 443.225,245.843 443.725,246.843 443,248.5C 441.649,250.019 440.149,251.352 438.5,252.5C 438.167,252.167 437.833,251.833 437.5,251.5C 438.467,249.21 439.8,247.21 441.5,245.5 Z M 665.5,246.5 C 668.553,247.28 670.22,249.28 670.5,252.5C 669.615,255.323 667.948,255.99 665.5,254.5C 664.271,251.801 664.271,249.135 665.5,246.5 Z M 693.5,247.5 C 694.251,246.427 695.251,246.26 696.5,247C 698.833,250 701.167,253 703.5,256C 701.956,256.29 700.623,256.956 699.5,258C 707.498,260.626 711.498,265.96 711.5,274C 708.631,274.377 706.131,273.544 704,271.5C 700.724,263.293 697.224,255.293 693.5,247.5 Z M 346.5,248.5 C 348.805,249.989 351.138,251.489 353.5,253C 349.862,253.515 347.529,252.015 346.5,248.5 Z M 649.5,248.5 C 650.995,248.415 651.995,249.081 652.5,250.5C 651.079,253.009 649.412,255.343 647.5,257.5C 646.959,255.286 646.626,253.12 646.5,251C 647.571,250.148 648.571,249.315 649.5,248.5 Z M 674.5,248.5 C 677.294,250.575 678.96,253.409 679.5,257C 678.51,260.52 676.51,261.353 673.5,259.5C 672.677,256.275 672.344,253.109 672.5,250C 673.416,249.722 674.082,249.222 674.5,248.5 Z M 445.5,249.5 C 449.713,249.699 451.046,251.699 449.5,255.5C 446.521,258.248 443.855,258.081 441.5,255C 442.65,253.019 443.984,251.186 445.5,249.5 Z M 644.5,249.5 C 643.484,253.555 643.484,257.888 644.5,262.5C 643.086,263.624 641.586,264.624 640,265.5C 638.796,264.141 637.296,263.141 635.5,262.5C 636.875,260.837 636.542,259.503 634.5,258.5C 637.257,254.737 640.59,251.737 644.5,249.5 Z M 469.5,250.5 C 474.871,251.702 477.371,255.035 477,260.5C 476.439,261.022 475.772,261.355 475,261.5C 471.691,259.785 468.191,258.785 464.5,258.5C 464.667,254.821 466.334,252.154 469.5,250.5 Z M 478.5,250.5 C 481.642,250.799 483.809,252.466 485,255.5C 487.062,260.331 487.729,265.331 487,270.5C 483.292,264.211 480.459,257.545 478.5,250.5 Z M 283.5,251.5 C 283.419,261.006 283.585,270.673 284,280.5C 282.234,270.875 282.067,261.209 283.5,251.5 Z M 656.5,252.5 C 662.098,253.507 663.931,256.841 662,262.5C 658.706,265.311 655.706,264.978 653,261.5C 651.959,257.59 653.125,254.59 656.5,252.5 Z M 373.5,253.5 C 369.91,257.576 365.577,260.743 360.5,263C 357.668,264.908 358.001,265.741 361.5,265.5C 359.063,267.433 356.729,269.6 354.5,272C 355.167,272.333 355.833,272.667 356.5,273C 351.742,279.762 346.242,285.929 340,291.5C 338.414,293.67 337.08,296.004 336,298.5C 331.833,302 327.667,305.5 323.5,309C 326.702,308.914 329.702,307.914 332.5,306C 336.167,303 339.833,300 343.5,297C 355.006,284.328 367.006,272.161 379.5,260.5C 376.109,266.942 372.443,273.275 368.5,279.5C 368.624,280.107 368.957,280.44 369.5,280.5C 360.648,297.759 346.648,307.926 327.5,311C 336.355,311.999 344.522,310.166 352,305.5C 352.507,306.996 352.007,308.163 350.5,309C 338.86,314.713 326.527,317.379 313.5,317C 314.623,318.044 315.956,318.71 317.5,319C 320.333,319.167 323.167,319.333 326,319.5C 333.733,319.216 341.233,318.049 348.5,316C 347.101,319.064 344.768,321.064 341.5,322C 332.657,324.359 323.657,325.692 314.5,326C 321.421,327.219 328.421,327.886 335.5,328C 329.111,329.211 322.778,330.544 316.5,332C 320.833,332.333 325.167,332.667 329.5,333C 325.833,333.333 322.167,333.667 318.5,334C 327.698,335.608 327.698,336.608 318.5,337C 319.833,337.333 321.167,337.667 322.5,338C 305.843,337.753 293.009,330.586 284,316.5C 283.655,305.691 288.155,297.524 297.5,292C 322.731,278.885 348.064,266.051 373.5,253.5 Z M 437.5,255.5 C 438.525,255.897 438.692,256.563 438,257.5C 436.316,259.351 434.483,261.018 432.5,262.5C 431.592,261.21 431.759,259.877 433,258.5C 434.652,257.601 436.152,256.601 437.5,255.5 Z M 456.5,256.5 C 458.308,256.491 459.975,256.991 461.5,258C 460.378,260.124 458.878,261.957 457,263.5C 454.455,262.478 451.955,261.312 449.5,260C 451.713,258.384 454.047,257.217 456.5,256.5 Z M 682.5,257.5 C 688.133,258.888 690.133,262.388 688.5,268C 686.633,268.711 685.133,268.211 684,266.5C 682.069,263.603 681.569,260.603 682.5,257.5 Z M 408.5,258.5 C 414.396,258.811 415.062,260.978 410.5,265C 408,266.833 405.5,268.667 403,270.5C 401.52,268.663 401.52,266.663 403,264.5C 404.36,261.977 406.193,259.977 408.5,258.5 Z M 666.5,258.5 C 672.879,260.471 673.879,263.971 669.5,269C 668.207,269.49 666.873,269.657 665.5,269.5C 665.244,265.731 665.577,262.064 666.5,258.5 Z M 691.5,258.5 C 693.144,258.286 694.644,258.62 696,259.5C 697.302,262.375 698.135,265.375 698.5,268.5C 696.738,268.643 695.071,268.309 693.5,267.5C 692.511,264.562 691.844,261.562 691.5,258.5 Z M 441.5,259.5 C 442.473,259.987 443.473,260.487 444.5,261C 441.734,262.467 439.234,264.3 437,266.5C 437.004,263.307 438.504,260.974 441.5,259.5 Z M 463.5,262.5 C 466.747,262.415 469.581,263.415 472,265.5C 472.671,269.517 473.004,273.517 473,277.5C 469.892,283.547 466.225,283.88 462,278.5C 458.516,272.788 459.016,267.454 463.5,262.5 Z M 675.5,263.5 C 676.822,263.33 677.989,263.663 679,264.5C 681.117,267.739 680.784,270.739 678,273.5C 676.414,272.624 674.914,271.624 673.5,270.5C 674.325,268.199 674.992,265.865 675.5,263.5 Z M 445.5,264.5 C 452.404,263.762 455.404,266.762 454.5,273.5C 449.653,274.774 444.987,276.274 440.5,278C 438.604,276.192 438.104,274.025 439,271.5C 440.694,268.642 442.861,266.309 445.5,264.5 Z M 648.5,264.5 C 654.016,264.473 655.349,266.64 652.5,271C 649.519,271.381 647.519,270.048 646.5,267C 647.381,266.292 648.047,265.458 648.5,264.5 Z M 431.5,265.5 C 432.478,265.811 433.145,266.478 433.5,267.5C 431.862,268.958 430.195,269.292 428.5,268.5C 429.34,267.265 430.34,266.265 431.5,265.5 Z M 477.5,265.5 C 478.87,265.856 479.87,266.69 480.5,268C 483.598,275.498 483.098,282.664 479,289.5C 477.859,286.938 477.026,284.272 476.5,281.5C 477.34,276.083 477.673,270.75 477.5,265.5 Z M 584.5,265.5 C 575.805,269.075 566.638,271.075 557,271.5C 554.429,270.676 551.929,270.676 549.5,271.5C 547.833,270.667 546.167,269.833 544.5,269C 558.025,270.233 571.358,269.067 584.5,265.5 Z M 659.5,267.5 C 660.117,267.611 660.617,267.944 661,268.5C 661.667,272.167 661.667,275.833 661,279.5C 660.586,279.957 660.086,280.291 659.5,280.5C 655.567,276.014 655.567,271.681 659.5,267.5 Z M 513.5,269.5 C 524.131,269.491 534.131,271.991 543.5,277C 525.523,274.914 508.19,277.414 491.5,284.5C 490.428,280.944 491.428,277.944 494.5,275.5C 500.637,272.485 506.97,270.485 513.5,269.5 Z M 642.5,269.5 C 645.828,271.978 649.328,274.311 653,276.5C 653.756,278.809 653.256,280.809 651.5,282.5C 650.5,280.833 649.167,279.5 647.5,278.5C 647.709,277.914 648.043,277.414 648.5,277C 646.616,276.784 644.949,276.117 643.5,275C 644.791,272.91 644.124,271.576 641.5,271C 642.056,270.617 642.389,270.117 642.5,269.5 Z M 691.5,269.5 C 694.301,270.377 696.968,271.544 699.5,273C 698.833,276.333 698.167,279.667 697.5,283C 694.975,283.896 692.808,283.396 691,281.5C 690.306,277.446 690.473,273.446 691.5,269.5 Z M 682.5,270.5 C 687.49,273.75 688.657,278.084 686,283.5C 684.989,284.337 683.822,284.67 682.5,284.5C 682.2,279.999 682.2,275.333 682.5,270.5 Z M 430.5,271.5 C 431.5,271.5 432.5,271.5 433.5,271.5C 433.657,272.873 433.49,274.207 433,275.5C 430.429,277.353 427.762,279.019 425,280.5C 424.289,275.919 426.122,272.919 430.5,271.5 Z M 665.5,272.5 C 667.167,272.5 668.833,272.5 670.5,272.5C 670.836,277 668.836,278.833 664.5,278C 665.074,276.081 665.407,274.247 665.5,272.5 Z M 399.5,273.5 C 403.439,273.178 404.272,274.511 402,277.5C 400.5,279 399,280.5 397.5,282C 395.741,282.798 394.074,282.631 392.5,281.5C 394.169,278.17 396.502,275.503 399.5,273.5 Z M 187.5,274.5 C 188.768,276.905 189.435,279.572 189.5,282.5C 187.96,280.162 187.294,277.495 187.5,274.5 Z M 598.5,311.5 C 598.878,305.69 598.211,300.024 596.5,294.5C 598.006,293.253 599.506,293.253 601,294.5C 601.483,293.552 601.649,292.552 601.5,291.5C 602.885,292.614 604.385,293.614 606,294.5C 606.492,293.451 606.326,292.451 605.5,291.5C 606.376,290.749 607.376,290.249 608.5,290C 608.167,289.667 607.833,289.333 607.5,289C 609.833,288 611.5,286.333 612.5,284C 614.883,283.935 615.55,283.102 614.5,281.5C 615.5,280.833 616.5,280.167 617.5,279.5C 617.291,278.914 616.957,278.414 616.5,278C 617.973,277.29 618.64,276.124 618.5,274.5C 630.668,276.132 636.168,282.799 635,294.5C 630.571,300.93 624.905,305.93 618,309.5C 617.798,307.744 617.298,306.078 616.5,304.5C 615.338,306.824 614.171,309.158 613,311.5C 612.667,309.167 612.333,306.833 612,304.5C 610.861,307.583 609.528,310.583 608,313.5C 608.128,310.514 608.128,307.514 608,304.5C 606.269,308.295 604.269,311.962 602,315.5C 602.405,311.879 602.405,308.213 602,304.5C 601.33,307.174 600.163,309.507 598.5,311.5 Z M 701.5,274.5 C 702.458,274.953 703.292,275.619 704,276.5C 705.988,281.414 706.488,286.414 705.5,291.5C 703.803,290.636 702.637,289.303 702,287.5C 701.501,283.179 701.334,278.846 701.5,274.5 Z M 673.5,275.5 C 675.167,275.5 676.833,275.5 678.5,275.5C 678.663,277.857 678.497,280.19 678,282.5C 676.333,285.167 674.667,285.167 673,282.5C 672.444,280.115 672.61,277.782 673.5,275.5 Z M 450.5,278.5 C 456.471,277.8 459.804,280.466 460.5,286.5C 460.756,293.676 457.422,298.009 450.5,299.5C 445.554,295.267 443.721,289.934 445,283.5C 446.73,281.598 448.563,279.931 450.5,278.5 Z M 381.5,279.5 C 379.612,283.606 377.446,287.606 375,291.5C 365.233,304.724 355.733,318.058 346.5,331.5C 352.719,310.364 364.386,293.031 381.5,279.5 Z M 708.5,279.5 C 712.74,281.333 713.24,283.666 710,286.5C 709.023,284.26 708.523,281.927 708.5,279.5 Z M 428.5,280.5 C 431.518,280.335 434.518,280.502 437.5,281C 438.167,281.667 438.833,282.333 439.5,283C 436.157,284.196 432.657,285.03 429,285.5C 425.927,284.252 425.76,282.585 428.5,280.5 Z M 665.5,282.5 C 666.601,281.402 667.934,281.235 669.5,282C 670.849,283.635 670.682,285.135 669,286.5C 668.34,284.676 667.173,283.343 665.5,282.5 Z M 70.5,307.5 C 66.837,306.888 63.1703,306.721 59.5,307C 63.4643,308.663 67.4643,310.33 71.5,312C 72.3805,312.708 73.0472,313.542 73.5,314.5C 67.5601,313.35 61.5601,312.517 55.5,312C 53.208,310.71 51.208,309.043 49.5,307C 47.0859,305.115 44.4192,304.448 41.5,305C 47.7804,309.442 52.7804,314.942 56.5,321.5C 49.847,318.394 42.847,316.727 35.5,316.5C 32.3089,316.378 29.3089,316.878 26.5,318C 33.4709,317.905 40.1376,319.238 46.5,322C 42.3787,321.647 38.212,321.147 34,320.5C 19.8377,322.68 20.0044,323.847 34.5,324C 32.8333,324.333 31.1667,324.667 29.5,325C 36.2379,326.748 42.9046,328.748 49.5,331C 47.8333,331.333 46.1667,331.667 44.5,332C 51.4753,333.119 58.4753,334.119 65.5,335C 68.1739,335.67 70.5073,336.837 72.5,338.5C 58.067,338.206 43.7337,336.873 29.5,334.5C 22.9847,334.612 17.8181,337.279 14,342.5C 14.0966,339.704 14.9299,337.037 16.5,334.5C 14.4369,333.976 12.9369,334.976 12,337.5C 13.9349,325.808 19.4349,315.975 28.5,308C 40.2077,300.956 50.7077,292.456 60,282.5C 61.8259,284.074 63.9925,284.907 66.5,285C 65.8333,285.333 65.1667,285.667 64.5,286C 66.5,286.333 68.5,286.667 70.5,287C 68.6992,287.317 68.3659,287.984 69.5,289C 75.8765,290.511 82.2099,292.177 88.5,294C 82.8141,294.3 77.1474,294.3 71.5,294C 75.9293,295.257 80.2626,296.924 84.5,299C 87.2003,302.437 89.5337,306.103 91.5,310C 95.4648,311.126 99.4648,312.126 103.5,313C 100.833,313.333 98.1667,313.667 95.5,314C 96.9494,315.117 98.6161,315.784 100.5,316C 96.1279,316.421 91.7946,317.088 87.5,318C 90.4715,318.794 93.4715,319.461 96.5,320C 93.7365,320.532 91.0698,321.366 88.5,322.5C 86.4925,320.992 84.8259,319.158 83.5,317C 78.2801,315.307 78.6134,314.14 84.5,313.5C 86.323,314.747 88.323,315.414 90.5,315.5C 87.8173,308.313 82.8173,303.147 75.5,300C 72.406,299.348 69.406,299.682 66.5,301C 67.1667,301.333 67.8333,301.667 68.5,302C 67.1667,302.667 65.8333,303.333 64.5,304C 66.8791,304.716 68.8791,305.883 70.5,307.5 Z M 189.5,282.5 C 190.738,284.214 191.405,286.214 191.5,288.5C 189.926,286.898 189.259,284.898 189.5,282.5 Z M 588.5,291.5 C 590.173,292.343 591.34,293.676 592,295.5C 594.541,304.002 592.708,311.336 586.5,317.5C 587.545,314.886 588.045,312.22 588,309.5C 586.052,313.613 583.219,316.946 579.5,319.5C 580.928,316.988 581.428,314.322 581,311.5C 578.868,315.431 576.035,318.764 572.5,321.5C 572.167,321.333 571.833,321.167 571.5,321C 573.574,318.698 574.908,316.032 575.5,313C 574.668,312.312 574.002,312.479 573.5,313.5C 571.862,316.304 570.029,318.971 568,321.5C 568.253,318.867 568.253,316.2 568,313.5C 566.159,317.183 563.826,320.516 561,323.5C 561.736,320.593 562.07,317.593 562,314.5C 560.042,318.775 557.208,321.942 553.5,324C 554.872,321.467 555.872,318.8 556.5,316C 556.167,315.833 555.833,315.667 555.5,315.5C 553.303,319.238 550.636,322.571 547.5,325.5C 547.167,325.333 546.833,325.167 546.5,325C 548.97,322.237 549.804,319.07 549,315.5C 547.021,319.3 544.521,322.634 541.5,325.5C 542.96,322.296 543.46,318.962 543,315.5C 540.685,319.638 537.852,323.305 534.5,326.5C 535.928,323.988 536.428,321.322 536,318.5C 533.763,320.647 531.763,322.98 530,325.5C 530,323.5 530,321.5 530,319.5C 527.609,322.597 524.776,324.763 521.5,326C 523.036,324.401 523.536,322.567 523,320.5C 520.666,324 517.832,327 514.5,329.5C 515.323,327.545 515.49,325.545 515,323.5C 512.715,326.432 510.215,329.098 507.5,331.5C 508.928,328.988 509.428,326.322 509,323.5C 506.86,327.462 504.027,330.796 500.5,333.5C 501.16,331.184 501.827,328.851 502.5,326.5C 502.167,325.833 501.833,325.167 501.5,324.5C 499.667,327.5 497.833,330.5 496,333.5C 495.282,334.451 494.449,334.617 493.5,334C 495.244,331.037 495.744,327.871 495,324.5C 493.477,328.893 490.977,332.56 487.5,335.5C 488.135,332.507 488.301,329.507 488,326.5C 486.695,330.797 484.195,334.131 480.5,336.5C 480.66,334.801 480.494,333.134 480,331.5C 478.188,334.28 476.021,336.78 473.5,339C 472.833,339.667 472.167,339.667 471.5,339C 473.347,336.421 473.847,333.588 473,330.5C 471.333,333.167 469.667,335.833 468,338.5C 462.55,342.952 461.55,342.286 465,336.5C 465.667,334.833 465.667,333.167 465,331.5C 463.483,333.24 461.983,334.906 460.5,336.5C 460.491,334.692 460.991,333.025 462,331.5C 465.07,329.553 467.57,327.053 469.5,324C 473.029,322.534 476.695,321.534 480.5,321C 478.377,319.806 476.043,319.14 473.5,319C 477.677,316.941 482.01,315.274 486.5,314C 485.737,313.056 484.737,312.556 483.5,312.5C 481.845,313.228 480.179,313.395 478.5,313C 482.419,311.138 486.419,309.471 490.5,308C 488.833,307.667 487.167,307.333 485.5,307C 488.628,306.125 491.628,304.958 494.5,303.5C 492.577,302.692 490.577,302.192 488.5,302C 492.654,300.966 496.654,299.632 500.5,298C 498.167,297.667 495.833,297.333 493.5,297C 497.211,296.156 500.877,295.156 504.5,294C 502.956,293.71 501.623,293.044 500.5,292C 504.305,291.466 507.971,290.466 511.5,289C 510.833,288.667 510.167,288.333 509.5,288C 524.478,283.275 539.478,282.942 554.5,287C 561.868,290.638 569.368,293.138 577,294.5C 577.333,293.833 577.667,293.167 578,292.5C 579.167,294.167 580.333,295.833 581.5,297.5C 582.192,295.665 581.858,293.832 580.5,292C 583.917,291.124 586.417,292.291 588,295.5C 588.49,294.207 588.657,292.873 588.5,291.5 Z M 379.5,300.5 C 382.853,298.141 386.52,296.141 390.5,294.5C 388.761,294.406 386.761,294.239 384.5,294C 387.311,292.356 389.644,290.19 391.5,287.5C 395.754,285.093 400.088,284.926 404.5,287C 400.073,289.685 398.24,293.518 399,298.5C 401.071,299.525 403.238,300.358 405.5,301C 402.966,301.516 400.8,302.683 399,304.5C 397.731,308.141 396.564,311.808 395.5,315.5C 390.944,316.195 386.778,317.861 383,320.5C 380.463,325.584 378.463,330.917 377,336.5C 373.36,340.14 369.694,343.806 366,347.5C 362.059,352.449 362.726,356.449 368,359.5C 368.307,363.62 367.64,367.62 366,371.5C 363.07,375.699 360.403,380.032 358,384.5C 357.787,389.032 358.453,393.365 360,397.5C 359.667,397.833 359.333,398.167 359,398.5C 356.547,389.5 355.214,389.5 355,398.5C 352.761,393.988 352.094,389.321 353,384.5C 351.577,386.345 350.41,388.345 349.5,390.5C 348.671,385.198 348.171,379.864 348,374.5C 346.054,377.139 345.054,380.139 345,383.5C 344.262,379.29 344.428,375.124 345.5,371C 345.15,369.743 344.483,369.409 343.5,370C 342.809,371.067 342.309,372.234 342,373.5C 341.669,369.473 342.002,365.473 343,361.5C 350.115,341.051 360.282,322.884 373.5,307C 377.531,304.984 381.531,302.984 385.5,301C 383.527,300.505 381.527,300.338 379.5,300.5 Z M 471.5,285.5 C 472.966,286.347 473.8,287.68 474,289.5C 475.456,295.097 475.789,300.763 475,306.5C 474.163,308.844 472.829,310.844 471,312.5C 468.221,306.61 465.721,300.61 463.5,294.5C 464.817,290.189 467.484,287.189 471.5,285.5 Z M 660.5,285.5 C 663.421,285.146 665.754,286.146 667.5,288.5C 666.236,291.125 665.069,293.792 664,296.5C 662.667,297.833 661.333,297.833 660,296.5C 658.024,292.599 658.19,288.932 660.5,285.5 Z M 687.5,285.5 C 688.787,286.871 689.453,288.705 689.5,291C 689.333,292.833 689.167,294.667 689,296.5C 688,297.833 687,297.833 686,296.5C 685.112,292.598 685.612,288.931 687.5,285.5 Z M 419.5,286.5 C 420.873,286.343 422.207,286.51 423.5,287C 421.333,289.833 419.167,292.667 417,295.5C 415.842,295.002 415.009,294.169 414.5,293C 415.283,290.062 416.95,287.896 419.5,286.5 Z M 653.5,286.5 C 653.557,288.884 653.223,291.218 652.5,293.5C 654.908,297.735 656.574,302.235 657.5,307C 656.688,314.866 656.355,322.7 656.5,330.5C 653.692,329.03 650.692,328.197 647.5,328C 650.244,327.197 652.911,326.197 655.5,325C 646.353,324.235 646.353,322.902 655.5,321C 650.88,319.337 646.213,319.003 641.5,320C 645.833,318.333 650.167,316.667 654.5,315C 652.167,314.667 649.833,314.333 647.5,314C 650.244,313.197 652.911,312.197 655.5,311C 651.452,310.566 647.452,310.566 643.5,311C 647.37,309.713 651.036,308.047 654.5,306C 652.833,305.667 651.167,305.333 649.5,305C 651.044,304.71 652.377,304.044 653.5,303C 651.323,301.798 648.989,301.298 646.5,301.5C 647.81,299.852 649.143,298.186 650.5,296.5C 648.939,295.653 647.439,295.986 646,297.5C 644.795,296.929 643.628,296.262 642.5,295.5C 645.31,291.348 648.976,288.348 653.5,286.5 Z M 679.5,286.5 C 680.496,286.414 681.329,286.748 682,287.5C 682.814,289.902 682.647,292.235 681.5,294.5C 680.914,294.291 680.414,293.957 680,293.5C 679.503,291.19 679.337,288.857 679.5,286.5 Z M 692.5,286.5 C 697.272,285.603 699.605,287.603 699.5,292.5C 698.691,294.071 698.357,295.738 698.5,297.5C 697.022,297.762 695.689,297.429 694.5,296.5C 692.816,293.388 692.15,290.054 692.5,286.5 Z M 672.5,287.5 C 673.833,287.5 675.167,287.5 676.5,287.5C 677.106,291.622 675.606,294.622 672,296.5C 668.697,293.357 668.863,290.357 672.5,287.5 Z M 430.5,288.5 C 432.857,288.337 435.19,288.503 437.5,289C 439.028,291.917 440.361,294.917 441.5,298C 436.478,298.396 431.812,299.896 427.5,302.5C 423.677,301.533 422.177,299.199 423,295.5C 425.015,292.588 427.515,290.255 430.5,288.5 Z M 711.5,289.5 C 712.822,289.33 713.989,289.663 715,290.5C 716.636,295.375 717.469,300.375 717.5,305.5C 715.61,305.703 714.11,305.037 713,303.5C 710.657,298.951 710.157,294.284 711.5,289.5 Z M 702.5,294.5 C 705.766,294.433 707.266,296.099 707,299.5C 707.936,302.792 707.436,305.792 705.5,308.5C 704.914,308.291 704.414,307.957 704,307.5C 702.319,303.175 701.819,298.841 702.5,294.5 Z M 676.5,296.5 C 678.948,296.01 680.615,296.843 681.5,299C 680.161,302.18 677.827,304.014 674.5,304.5C 674.584,301.673 675.25,299.006 676.5,296.5 Z M 87.5,298.5 C 87.56,297.957 87.8933,297.624 88.5,297.5C 89.7689,299.18 91.4356,300.347 93.5,301C 90.7236,302.779 91.0569,303.779 94.5,304C 93.1667,304.667 93.1667,305.333 94.5,306C 93.2396,307.113 92.073,307.28 91,306.5C 90.2622,303.499 89.0955,300.832 87.5,298.5 Z M 410.5,297.5 C 412.655,297.372 414.655,297.872 416.5,299C 414.083,300.626 411.583,302.126 409,303.5C 408.591,301.305 409.091,299.305 410.5,297.5 Z M 690.5,298.5 C 693.488,298.155 694.821,299.488 694.5,302.5C 694.359,306.499 692.526,307.832 689,306.5C 688.109,303.502 688.609,300.836 690.5,298.5 Z M 667.5,299.5 C 668.833,299.5 670.167,299.5 671.5,299.5C 671.631,304.709 669.297,306.375 664.5,304.5C 665.26,302.64 666.26,300.973 667.5,299.5 Z M 683.5,300.5 C 685.302,301.315 686.302,302.815 686.5,305C 685.922,306.811 685.422,308.645 685,310.5C 682.524,312.063 681.024,311.396 680.5,308.5C 681.572,305.796 682.572,303.13 683.5,300.5 Z M 457.5,301.5 C 462.756,303.812 465.423,307.978 465.5,314C 463.796,318.052 461.629,321.885 459,325.5C 452.93,320.513 450.93,314.179 453,306.5C 454.025,304.313 455.525,302.646 457.5,301.5 Z M 698.5,301.5 C 700.614,306.194 701.947,311.194 702.5,316.5C 698.451,316.129 696.451,313.796 696.5,309.5C 697.171,306.815 697.838,304.148 698.5,301.5 Z M 146.5,302.5 C 166.658,306.227 186.992,308.727 207.5,310C 210.121,310.906 209.954,311.406 207,311.5C 203.861,310.574 200.694,310.408 197.5,311C 199.611,311.845 201.611,312.678 203.5,313.5C 201.473,313.338 199.473,313.505 197.5,314C 202.332,316.126 207.332,317.793 212.5,319C 213.167,319.667 213.833,320.333 214.5,321C 210.512,320.908 206.512,320.408 202.5,319.5C 201.304,319.846 201.304,320.346 202.5,321C 204.715,322.044 207.048,322.71 209.5,323C 207.833,323.333 206.167,323.667 204.5,324C 204.833,324.333 205.167,324.667 205.5,325C 210.572,325.678 215.572,326.678 220.5,328C 216.5,328.333 212.5,328.667 208.5,329C 214.5,330.333 220.5,331.667 226.5,333C 223.5,333.333 220.5,333.667 217.5,334C 218.328,334.915 219.328,335.581 220.5,336C 208.469,334.996 196.469,333.329 184.5,331C 175.198,329.517 167.531,325.183 161.5,318C 164.553,317.821 167.553,317.321 170.5,316.5C 166.939,315.239 163.272,314.406 159.5,314C 157.275,313.439 155.275,312.439 153.5,311C 158.167,310.667 162.833,310.333 167.5,310C 161.152,308.441 154.819,306.774 148.5,305C 147.619,304.292 146.953,303.458 146.5,302.5 Z M 438.5,302.5 C 444.056,301.926 447.39,304.259 448.5,309.5C 448.228,312.715 447.395,315.715 446,318.5C 445.667,317.5 445.333,316.5 445,315.5C 438.906,327.588 433.406,327.421 428.5,315C 428.905,308.3 432.239,304.133 438.5,302.5 Z M 71.5,303.5 C 76.0557,304.113 79.7223,306.28 82.5,310C 80.481,310.45 78.6477,311.283 77,312.5C 75.0739,309.553 73.2406,306.553 71.5,303.5 Z M 414.5,303.5 C 423.429,303.367 425.595,307.033 421,314.5C 417.541,313.867 414.041,313.2 410.5,312.5C 409.515,310.902 409.349,309.235 410,307.5C 411.397,305.93 412.897,304.596 414.5,303.5 Z M 403.5,304.5 C 404.5,304.5 405.5,304.5 406.5,304.5C 406.2,307.518 404.533,309.518 401.5,310.5C 400.412,307.992 401.078,305.992 403.5,304.5 Z M 672.5,307.5 C 674.39,307.297 675.89,307.963 677,309.5C 678.505,318.21 676.172,319.543 670,313.5C 669.034,310.66 669.867,308.66 672.5,307.5 Z M 245.5,308.5 C 254.751,308.182 263.917,308.515 273,309.5C 273.808,311.579 273.641,313.579 272.5,315.5C 265.923,313.887 259.256,313.387 252.5,314C 259.066,316.047 265.733,317.713 272.5,319C 267.833,319.333 263.167,319.667 258.5,320C 264.898,321.09 271.231,322.424 277.5,324C 275.608,324.973 273.608,325.64 271.5,326C 264.5,326.333 257.5,326.667 250.5,327C 261.419,329.103 272.419,330.769 283.5,332C 275.33,333.303 266.997,333.97 258.5,334C 261.377,335.127 264.377,335.794 267.5,336C 274.833,336.333 282.167,336.667 289.5,337C 267.125,343.73 245.458,339.397 224.5,324C 219.751,319.922 215.751,315.255 212.5,310C 223.674,309.83 234.674,309.33 245.5,308.5 Z M 661.5,308.5 C 665.588,308.218 666.088,308.885 663,310.5C 661.97,310.164 661.47,309.497 661.5,308.5 Z M 688.5,310.5 C 690.167,310.5 691.833,310.5 693.5,310.5C 693.965,314.792 693.132,318.792 691,322.5C 688.757,318.869 687.923,314.869 688.5,310.5 Z M 131.5,311.5 C 136.08,311.113 140.414,311.947 144.5,314C 150.823,319.983 157.489,325.65 164.5,331C 170.488,334.494 176.821,337.161 183.5,339C 215.893,344.97 248.559,348.303 281.5,349C 282.423,351.041 282.756,353.208 282.5,355.5C 235.087,353.581 187.754,354.747 140.5,359C 139.366,360.016 139.699,360.683 141.5,361C 124.175,361.833 106.841,362.333 89.5,362.5C 89.3347,358.818 89.5014,355.152 90,351.5C 96.7477,347.759 103.248,343.592 109.5,339C 114.621,332.595 119.121,325.762 123,318.5C 125.464,315.519 128.297,313.186 131.5,311.5 Z M 404.5,311.5 C 406.25,312.742 407.917,314.242 409.5,316C 406.124,317.677 402.79,317.343 399.5,315C 401.233,313.811 402.9,312.644 404.5,311.5 Z M 627.5,311.5 C 628.5,311.5 629.5,311.5 630.5,311.5C 630.694,326.013 630.361,340.513 629.5,355C 629.603,359.545 630.103,364.045 631,368.5C 631.308,369.308 631.808,369.975 632.5,370.5C 634.517,369.826 636.183,368.659 637.5,367C 638.833,366.333 640.167,366.333 641.5,367C 643.041,369.916 644.707,372.749 646.5,375.5C 640.333,375.833 634.167,376.167 628,376.5C 593.496,375.349 558.996,375.182 524.5,376C 532.559,375.394 540.559,374.394 548.5,373C 547.167,372.667 545.833,372.333 544.5,372C 530.837,370.972 517.17,369.972 503.5,369C 512.698,367.392 512.698,366.392 503.5,366C 493.833,365.667 484.167,365.333 474.5,365C 477.371,364.882 480.038,364.216 482.5,363C 468.156,362.077 453.823,361.077 439.5,360C 442.503,354.494 447.17,351.494 453.5,351C 477.142,347.872 500.476,343.205 523.5,337C 553.701,336.411 583.034,331.078 611.5,321C 617.392,318.563 622.726,315.396 627.5,311.5 Z M 707.5,312.5 C 711.192,312.695 713.026,314.695 713,318.5C 713.667,321.5 713.667,324.5 713,327.5C 712.586,327.957 712.086,328.291 711.5,328.5C 706.773,324.014 705.439,318.681 707.5,312.5 Z M 665.5,313.5 C 667.672,314.661 669.006,316.495 669.5,319C 668.108,322.293 666.108,325.126 663.5,327.5C 661.579,323.711 661.079,319.711 662,315.5C 663.302,314.915 664.469,314.249 665.5,313.5 Z M 683.5,313.5 C 685.884,314.425 686.884,316.258 686.5,319C 684.878,326.176 682.878,326.176 680.5,319C 680.863,316.808 681.863,314.974 683.5,313.5 Z M 75.5,326.5 C 73.8333,327.167 72.1667,327.833 70.5,328.5C 64.9982,324.643 60.9982,319.976 58.5,314.5C 62.8069,316.102 67.1402,317.602 71.5,319C 73.7333,321.113 75.0666,323.613 75.5,326.5 Z M 416.5,317.5 C 421.34,316.975 424.34,318.975 425.5,323.5C 422.154,328.204 418.821,332.871 415.5,337.5C 406.542,334.339 405.042,329.006 411,321.5C 412.812,320.023 414.645,318.69 416.5,317.5 Z M 695.5,317.5 C 697.17,317.751 698.67,318.418 700,319.5C 700.607,323.537 700.44,327.537 699.5,331.5C 693.669,332.487 691.502,330.154 693,324.5C 693.847,322.146 694.68,319.812 695.5,317.5 Z M 75.5,326.5 C 76.7785,323.998 76.7785,321.498 75.5,319C 78.1884,319.007 80.6884,319.84 83,321.5C 82.1794,325.191 79.6794,326.858 75.5,326.5 Z M 396.5,318.5 C 404.266,317.945 406.266,321.112 402.5,328C 398.428,328.956 394.595,328.456 391,326.5C 390.48,324.711 390.813,323.044 392,321.5C 393.652,320.601 395.152,319.601 396.5,318.5 Z M 388.5,320.5 C 387.998,322.085 386.998,322.585 385.5,322C 386.244,320.961 387.244,320.461 388.5,320.5 Z M 672.5,320.5 C 673.493,323.628 672.827,326.628 670.5,329.5C 669.598,326.255 670.264,323.255 672.5,320.5 Z M 447.5,322.5 C 451.189,323.862 453.522,326.529 454.5,330.5C 452.542,336.747 448.876,341.747 443.5,345.5C 436.979,336.284 438.312,328.618 447.5,322.5 Z M 676.5,323.5 C 679.541,323.379 681.208,324.879 681.5,328C 680.281,331.274 677.948,333.107 674.5,333.5C 674.311,329.963 674.977,326.63 676.5,323.5 Z M 90.5,324.5 C 90.3893,325.117 90.056,325.617 89.5,326C 92.4637,326.84 92.797,327.84 90.5,329C 91.3279,329.915 92.3279,330.581 93.5,331C 86.8333,332 86.8333,333 93.5,334C 91.5,334.667 89.5,335.333 87.5,336C 90.1013,336.92 92.7679,337.587 95.5,338C 93.1287,338.735 90.7954,339.568 88.5,340.5C 83.1224,335.484 77.1224,331.484 70.5,328.5C 73.8333,329.833 77.1667,329.833 80.5,328.5C 80.5,329.5 80.5,330.5 80.5,331.5C 81.8333,331.5 83.1667,331.5 84.5,331.5C 84.8997,327.653 86.8997,325.32 90.5,324.5 Z M 703.5,324.5 C 705.286,326.414 706.286,328.748 706.5,331.5C 706.275,336.084 706.109,340.751 706,345.5C 703.605,346.798 702.438,345.965 702.5,343C 702.385,336.852 702.718,330.685 703.5,324.5 Z M 385.5,325.5 C 388.076,325.722 388.91,327.055 388,329.5C 385.877,331.672 383.711,331.839 381.5,330C 383.041,328.629 384.375,327.129 385.5,325.5 Z M 686.5,325.5 C 687.922,325.75 688.922,326.583 689.5,328C 687.964,331.223 685.631,333.223 682.5,334C 684.246,331.341 685.58,328.508 686.5,325.5 Z M 428.5,326.5 C 432.928,327.265 435.262,329.932 435.5,334.5C 435.437,339.409 433.604,343.409 430,346.5C 429.333,345.167 428.667,345.167 428,346.5C 427.784,348.384 427.117,350.051 426,351.5C 425.086,347.815 424.419,348.148 424,352.5C 420.078,342.863 421.578,334.196 428.5,326.5 Z M 664.5,330.5 C 667.278,330.022 669.278,331.022 670.5,333.5C 665.721,337.918 662.721,343.252 661.5,349.5C 660.975,350.192 660.308,350.692 659.5,351C 654.121,351.492 648.787,351.825 643.5,352C 647.201,350.326 650.868,348.659 654.5,347C 651.833,346.333 651.833,345.667 654.5,345C 651.833,344.667 649.167,344.333 646.5,344C 649.702,343.453 652.702,342.453 655.5,341C 652.833,340.667 650.167,340.333 647.5,340C 652.372,339.527 657.039,338.36 661.5,336.5C 658.893,335.682 656.226,335.182 653.5,335C 657.177,333.341 660.844,331.841 664.5,330.5 Z M 389.5,331.5 C 390.552,331.351 391.552,331.517 392.5,332C 391.069,332.465 389.903,333.299 389,334.5C 388.53,333.423 388.697,332.423 389.5,331.5 Z M 711.5,332.5 C 712.833,332.5 714.167,332.5 715.5,332.5C 715.665,335.85 715.498,339.183 715,342.5C 714.692,343.308 714.192,343.975 713.5,344.5C 710.904,340.793 710.238,336.793 711.5,332.5 Z M 381.5,333.5 C 383.716,333.275 385.383,334.108 386.5,336C 384.421,336.808 382.421,336.641 380.5,335.5C 380.863,334.817 381.196,334.15 381.5,333.5 Z M 396.5,333.5 C 401.084,332.793 404.75,334.293 407.5,338C 403.554,341.387 400.72,345.554 399,350.5C 397.938,351.899 396.605,352.899 395,353.5C 391.628,353.13 388.795,351.797 386.5,349.5C 387.842,342.794 391.175,337.461 396.5,333.5 Z M 689.5,333.5 C 690.756,333.461 691.756,333.961 692.5,335C 691.82,338.864 689.986,342.031 687,344.5C 684.697,342.662 684.031,340.328 685,337.5C 686.992,336.672 688.492,335.339 689.5,333.5 Z M 696.5,334.5 C 698.95,334.874 699.95,336.374 699.5,339C 699.905,342.944 698.405,344.11 695,342.5C 694.109,339.502 694.609,336.836 696.5,334.5 Z M 675.5,336.5 C 676.873,336.343 678.207,336.51 679.5,337C 676.333,341.5 672.5,345.333 668,348.5C 667.365,346.365 667.699,344.365 669,342.5C 671.063,340.266 673.229,338.266 675.5,336.5 Z M 26.5,337.5 C 31.8108,338.437 36.8108,340.271 41.5,343C 38.5363,343.84 38.203,344.84 40.5,346C 37.3548,347.978 34.6881,350.478 32.5,353.5C 27.4692,349.071 21.9692,348.404 16,351.5C 15.8864,344.04 19.3864,339.373 26.5,337.5 Z M 380.5,339.5 C 382.167,339.5 383.833,339.5 385.5,339.5C 385.533,343.102 384.199,346.102 381.5,348.5C 379.333,347.052 377,345.885 374.5,345C 376.396,342.932 378.396,341.099 380.5,339.5 Z M 410.5,341.5 C 415.971,342.386 418.637,345.719 418.5,351.5C 417.882,354.732 416.715,357.732 415,360.5C 414.667,359.5 414.333,358.5 414,357.5C 412.56,361.142 410.06,363.808 406.5,365.5C 401.723,359.647 401.223,353.314 405,346.5C 406.73,344.598 408.563,342.931 410.5,341.5 Z M 679.5,341.5 C 682.966,344.184 682.799,347.184 679,350.5C 678.056,349.737 677.556,348.737 677.5,347.5C 678.178,345.484 678.844,343.484 679.5,341.5 Z M 435.5,344.5 C 438.229,348.46 437.562,352.126 433.5,355.5C 433.167,355 432.833,354.5 432.5,354C 434.007,350.979 435.007,347.812 435.5,344.5 Z M 691.5,344.5 C 692.478,344.811 693.145,345.478 693.5,346.5C 692.195,349.638 690.029,351.971 687,353.5C 685.635,352.407 685.301,351.074 686,349.5C 687.73,347.598 689.563,345.931 691.5,344.5 Z M 697.5,346.5 C 701.422,348.101 702.255,350.768 700,354.5C 697.24,358.129 695.406,357.962 694.5,354C 695.069,351.285 696.069,348.785 697.5,346.5 Z M 44.5,347.5 C 50.3862,348.286 53.2195,351.619 53,357.5C 48.3668,353.675 43.5335,353.509 38.5,357C 37.2986,357.903 36.4652,359.069 36,360.5C 35.8307,354.175 38.664,349.842 44.5,347.5 Z M 53.5,348.5 C 58.7679,349.568 63.7679,351.402 68.5,354C 69.8228,354.816 70.4894,355.983 70.5,357.5C 65.8562,355.722 61.8562,356.722 58.5,360.5C 58.277,355.823 56.6103,351.823 53.5,348.5 Z M 369.5,348.5 C 372.226,348.264 374.559,349.097 376.5,351C 374.627,353.209 372.46,355.042 370,356.5C 365.578,354.209 365.411,351.542 369.5,348.5 Z M 677.5,372.5 C 675.983,371.265 674.316,371.265 672.5,372.5C 672.167,372 671.833,371.5 671.5,371C 672.573,369.584 672.573,368.25 671.5,367C 672.672,366.581 673.672,365.915 674.5,365C 667.93,364.992 662.93,363.992 659.5,362C 663.167,361 666.833,360 670.5,359C 670.167,358.667 669.833,358.333 669.5,358C 666.5,357.667 663.5,357.333 660.5,357C 659.833,355.667 658.833,354.667 657.5,354C 661.77,352.746 666.104,351.746 670.5,351C 675.279,347.88 675.612,348.546 671.5,353C 675.138,353.25 678.638,353.417 682,353.5C 681.335,359.141 683.002,363.808 687,367.5C 687.483,368.448 687.649,369.448 687.5,370.5C 683.963,370.311 680.63,370.977 677.5,372.5 Z M 706.5,349.5 C 708.185,350.184 709.185,351.517 709.5,353.5C 708.994,356.391 707.994,359.058 706.5,361.5C 704.976,360.473 704.309,358.973 704.5,357C 704.668,354.335 705.335,351.835 706.5,349.5 Z M 71.5,352.5 C 72.7211,351.535 74.0544,351.702 75.5,353C 77.208,355.043 79.208,356.71 81.5,358C 80,358.5 78.5,359 77,359.5C 75.1559,357.129 73.3226,354.795 71.5,352.5 Z M 19.5,354.5 C 24.155,353.819 26.8217,355.819 27.5,360.5C 26.5909,365.487 24.2575,369.654 20.5,373C 19.552,373.483 18.552,373.649 17.5,373.5C 17.5357,369.547 16.869,365.714 15.5,362C 15.9274,358.977 17.2607,356.477 19.5,354.5 Z M 379.5,354.5 C 384.162,354.581 388.495,355.748 392.5,358C 389.87,361.632 386.87,364.965 383.5,368C 371.414,373.727 368.247,370.893 374,359.5C 375.406,357.256 377.239,355.59 379.5,354.5 Z M 690.5,354.5 C 692.478,356.496 692.478,358.829 690.5,361.5C 685.538,362.855 684.371,361.188 687,356.5C 688.302,355.915 689.469,355.249 690.5,354.5 Z M 427.5,358.5 C 430.12,367.344 427.454,374.677 419.5,380.5C 414.204,370.405 416.871,363.071 427.5,358.5 Z M 698.5,358.5 C 700.236,361.4 702.569,363.9 705.5,366C 704.671,367.816 703.837,369.649 703,371.5C 701.812,370.437 701.312,369.103 701.5,367.5C 697.973,368.26 694.64,369.594 691.5,371.5C 690.359,369.579 690.192,367.579 691,365.5C 693.396,362.933 695.896,360.6 698.5,358.5 Z M 41.5,359.5 C 46.8675,359.032 49.5342,361.532 49.5,367C 49.1605,371.844 47.3272,376.01 44,379.5C 43.1965,376.756 42.1965,374.089 41,371.5C 38.9471,370.733 37.4471,369.4 36.5,367.5C 37.6621,364.507 39.3288,361.841 41.5,359.5 Z M 396.5,359.5 C 398.335,360.122 399.502,361.456 400,363.5C 402.836,369.142 403.003,374.809 400.5,380.5C 399.726,381.711 398.893,381.711 398,380.5C 396.008,386.638 392.675,387.638 388,383.5C 385.913,380.327 384.079,376.994 382.5,373.5C 388.188,369.812 392.855,365.145 396.5,359.5 Z M 63.5,361.5 C 68.246,362.95 70.5793,366.283 70.5,371.5C 70.3078,373.577 69.8078,375.577 69,377.5C 66.5375,373.015 62.7042,370.681 57.5,370.5C 58.7783,366.912 60.7783,363.912 63.5,361.5 Z M 79.5,363.5 C 82.3203,365.478 83.8203,368.145 84,371.5C 81.7342,370.044 79.2342,369.21 76.5,369C 77.2228,366.982 78.2228,365.148 79.5,363.5 Z M 410.5,368.5 C 412.102,375.02 413.269,381.686 414,388.5C 413.667,388.167 413.333,387.833 413,387.5C 412,389.833 411,392.167 410,394.5C 405.862,394.613 402.695,392.613 400.5,388.5C 405.326,383.525 407.493,377.525 407,370.5C 408.302,369.915 409.469,369.249 410.5,368.5 Z M 661.5,370.5 C 663.844,370.979 665.178,372.479 665.5,375C 660.326,383.904 658.493,383.404 660,373.5C 660.513,372.473 661.013,371.473 661.5,370.5 Z M 707.5,371.5 C 710.49,374.093 711.656,377.426 711,381.5C 710,379.167 708.333,377.5 706,376.5C 705.387,374.505 705.887,372.838 707.5,371.5 Z M 696.5,372.5 C 697.5,372.5 698.5,372.5 699.5,372.5C 700.376,375.799 700.543,379.132 700,382.5C 699.167,379 697,376.833 693.5,376C 694.365,374.641 695.365,373.474 696.5,372.5 Z M 372.5,374.5 C 374.792,374.244 376.959,374.577 379,375.5C 381.912,380.584 383.745,385.751 384.5,391C 378.799,390.9 373.133,391.067 367.5,391.5C 363.011,391.167 361.511,388.833 363,384.5C 365.048,379.955 368.215,376.622 372.5,374.5 Z M 682.5,374.5 C 684.635,374.147 685.968,374.98 686.5,377C 684.284,387.929 682.617,388.429 681.5,378.5C 681.623,377.075 681.957,375.742 682.5,374.5 Z M 392.5,390.5 C 398.323,390.82 401.156,393.82 401,399.5C 398.929,396.584 397.595,396.918 397,400.5C 395.258,398.027 393.425,398.027 391.5,400.5C 387.834,399.183 386.168,396.517 386.5,392.5C 388.786,392.405 390.786,391.738 392.5,390.5 Z M 372.5,395.5 C 377.155,394.993 380.488,396.826 382.5,401C 380.038,405.426 377.204,409.593 374,413.5C 373.388,407.705 371.555,402.372 368.5,397.5C 369.949,396.828 371.282,396.161 372.5,395.5 Z M 412.5,401.5 C 414.952,402.736 416.119,404.736 416,407.5C 414.053,405.937 412.886,403.937 412.5,401.5 Z M 390.5,405.5 C 394.274,406.108 396.608,408.274 397.5,412C 395.523,418.649 391.357,423.482 385,426.5C 384.783,421.447 384.283,416.447 383.5,411.5C 385.266,408.792 387.599,406.792 390.5,405.5 Z M 414.5,421.5 C 411.172,418.585 407.338,416.585 403,415.5C 402.272,412.77 402.438,410.103 403.5,407.5C 404.723,406.386 406.056,406.219 407.5,407C 411.846,410.858 414.179,415.692 414.5,421.5 Z"/></g>
<g><path style="opacity:0.568" fill="#000000" d="M 329.5,32.5 C 333.551,34.8547 337.884,36.688 342.5,38C 351.5,38.3333 360.5,38.6667 369.5,39C 372.637,39.6011 375.637,40.6011 378.5,42C 372.867,41.6503 367.201,41.1503 361.5,40.5C 352.188,42.5408 343.188,41.7075 334.5,38C 331.921,36.9243 330.254,35.091 329.5,32.5 Z"/></g>
<g><path style="opacity:0.533" fill="#000000" d="M 433.5,60.5 C 433.56,59.9569 433.893,59.6236 434.5,59.5C 444.041,70.8835 452.208,83.2169 459,96.5C 460.971,100.74 462.305,105.073 463,109.5C 453.644,92.7713 443.81,76.4379 433.5,60.5 Z"/></g>
<g><path style="opacity:0.576" fill="#000000" d="M 423.5,61.5 C 423.897,60.475 424.563,60.3083 425.5,61C 438.369,73.917 447.203,89.0836 452,106.5C 443.822,90.5247 434.322,75.5247 423.5,61.5 Z"/></g>
<g><path style="opacity:0.428" fill="#000000" d="M 374.5,66.5 C 384.577,67.0793 393.577,70.4126 401.5,76.5C 401.5,77.1667 401.833,77.5 402.5,77.5C 402.5,78.1667 402.5,78.8333 402.5,79.5C 393.842,73.6187 384.509,69.2853 374.5,66.5 Z"/></g>
<g><path style="opacity:0.66" fill="#000000" d="M 303.5,72.5 C 304.573,73.2506 304.74,74.2506 304,75.5C 289.92,94.6512 277.086,114.651 265.5,135.5C 252.559,137.917 239.559,138.084 226.5,136C 219.193,135.24 212.193,133.407 205.5,130.5C 205.667,130.167 205.833,129.833 206,129.5C 211.411,130.615 216.911,131.448 222.5,132C 236.167,132.667 249.833,132.667 263.5,132C 275.481,111.189 288.814,91.3558 303.5,72.5 Z"/></g>
<g><path style="opacity:0.331" fill="#000000" d="M 452.5,82.5 C 453.793,81.3552 454.959,81.6885 456,83.5C 458.49,86.4651 459.824,89.7984 460,93.5C 457.477,89.7674 454.977,86.1008 452.5,82.5 Z"/></g>
<g><path style="opacity:0.563" fill="#000000" d="M 291.5,82.5 C 292.043,82.56 292.376,82.8933 292.5,83.5C 283.642,94.5237 274.976,105.69 266.5,117C 251.15,117.893 236.15,116.06 221.5,111.5C 221.667,111.167 221.833,110.833 222,110.5C 236.349,113.126 250.849,114.293 265.5,114C 273.246,102.753 281.913,92.2526 291.5,82.5 Z"/></g>
<g><path style="opacity:0.544" fill="#000000" d="M 211.5,116.5 C 212.793,115.842 214.293,115.508 216,115.5C 231.24,116.907 246.406,118.74 261.5,121C 244.628,121.628 227.962,120.128 211.5,116.5 Z"/></g>
<g><path style="opacity:0.49" fill="#000000" d="M 392.5,115.5 C 394.379,115.393 394.712,115.893 393.5,117C 373.406,125.773 352.406,130.607 330.5,131.5C 327.525,130.861 324.525,130.361 321.5,130C 346.105,129.179 369.772,124.346 392.5,115.5 Z"/></g>
<g><path style="opacity:0.459" fill="#000000" d="M 368.5,117.5 C 370.199,117.34 371.866,117.506 373.5,118C 356.688,124.247 339.355,126.58 321.5,125C 337.621,124.485 353.288,121.985 368.5,117.5 Z"/></g>
<g><path style="opacity:0.391" fill="#000000" d="M 696.5,127.5 C 696.158,126.662 695.492,126.328 694.5,126.5C 691.355,123.934 687.688,122.434 683.5,122C 688.611,120.889 693.278,121.889 697.5,125C 700.322,127.855 699.989,128.689 696.5,127.5 Z"/></g>
<g><path style="opacity:0.617" fill="#000000" d="M 399.5,122.5 C 401.379,122.393 401.712,122.893 400.5,124C 367.031,145.828 331.031,151.494 292.5,141C 330.398,147.326 366.065,141.159 399.5,122.5 Z"/></g>
<g><path style="opacity:0.61" fill="#000000" d="M 660.5,131.5 C 666.475,132.298 668.475,135.465 666.5,141C 661.061,142.233 659.228,140.399 661,135.5C 661.915,136.328 662.581,137.328 663,138.5C 663.167,138 663.333,137.5 663.5,137C 662.661,135.016 661.661,133.183 660.5,131.5 Z"/></g>
<g><path style="opacity:0.725" fill="#000000" d="M 751.5,134.5 C 750.538,138.146 748.205,139.313 744.5,138C 741.154,132.33 742.82,130.33 749.5,132C 750.066,132.995 750.733,133.828 751.5,134.5 Z"/></g>
<g><path style="opacity:0.753" fill="#000000" d="M 658.5,148.5 C 660.514,155.763 657.847,160.43 650.5,162.5C 649.14,161.82 647.807,161.153 646.5,160.5C 646.461,167.9 643.628,169.233 638,164.5C 633.644,157.055 631.978,149.055 633,140.5C 634.787,145.736 636.453,151.069 638,156.5C 639.506,160.048 641.673,160.381 644.5,157.5C 642.167,148.99 645.5,145.156 654.5,146C 650.542,143.894 649.542,140.727 651.5,136.5C 653.67,142.169 657.67,146.002 663.5,148C 661.866,148.494 660.199,148.66 658.5,148.5 Z"/></g>
<g><path style="opacity:0.541" fill="#000000" d="M 468.5,138.5 C 480.276,137.976 491.943,138.81 503.5,141C 496.5,141.334 489.5,141.167 482.5,140.5C 468.411,140.522 455.078,143.689 442.5,150C 432.19,155.012 428.356,163.179 431,174.5C 432.181,178.363 434.014,181.863 436.5,185C 433.151,184.32 430.984,182.153 430,178.5C 425.607,162.3 431.107,151.134 446.5,145C 453.77,142.188 461.104,140.021 468.5,138.5 Z"/></g>
<g><path style="opacity:0.518" fill="#000000" d="M 624.5,141.5 C 625.376,141.369 626.043,141.702 626.5,142.5C 625.271,147.475 624.105,152.475 623,157.5C 622.15,152.017 622.65,146.683 624.5,141.5 Z"/></g>
<g><path style="opacity:0.681" fill="#000000" d="M 669.5,147.5 C 674.241,147.161 675.574,149.161 673.5,153.5C 668.827,154.128 667.494,152.128 669.5,147.5 Z"/></g>
<g><path style="opacity:0.552" fill="#000000" d="M 673.5,158.5 C 675.75,158.181 677.75,158.681 679.5,160C 679.002,161.158 678.169,161.991 677,162.5C 674.667,161.167 672.333,161.167 670,162.5C 669.5,162.333 669,162.167 668.5,162C 669.955,160.374 671.622,159.208 673.5,158.5 Z"/></g>
<g><path style="opacity:0.694" fill="#000000" d="M 658.5,159.5 C 660.167,159.5 661.833,159.5 663.5,159.5C 663.5,161.167 663.5,162.833 663.5,164.5C 661.5,164.5 659.5,164.5 657.5,164.5C 657.366,162.708 657.699,161.042 658.5,159.5 Z"/></g>
<g><path style="opacity:0.553" fill="#000000" d="M 624.5,162.5 C 625.249,166.054 626.082,169.72 627,173.5C 630.483,175.993 634.316,177.16 638.5,177C 636.372,173.245 634.372,169.412 632.5,165.5C 633.274,164.289 634.107,164.289 635,165.5C 639.251,169.748 640.751,174.748 639.5,180.5C 634.284,179.928 629.45,178.261 625,175.5C 623.236,171.252 623.069,166.919 624.5,162.5 Z"/></g>
<g><path style="opacity:0.501" fill="#000000" d="M 659.5,170.5 C 663.459,172.073 665.125,175.073 664.5,179.5C 663.5,179.5 662.5,179.5 661.5,179.5C 661.79,176.215 661.123,173.215 659.5,170.5 Z"/></g>
<g><path style="opacity:0.833" fill="#000000" d="M 650.5,171.5 C 657.503,170.673 660.003,173.673 658,180.5C 650.185,185.875 646.851,183.875 648,174.5C 648.698,173.309 649.531,172.309 650.5,171.5 Z"/></g>
<g><path style="opacity:0.53" fill="#000000" d="M 554.5,231.5 C 572.009,226.504 586.843,217.171 599,203.5C 603.831,195.016 607.497,186.016 610,176.5C 608.382,199.23 597.215,215.396 576.5,225C 569.528,228.409 562.195,230.576 554.5,231.5 Z"/></g>
<g><path style="opacity:0.431" fill="#000000" d="M 407.5,183.5 C 412.134,188.305 416.634,193.305 421,198.5C 422.602,200.369 423.602,202.369 424,204.5C 416.767,198.777 411.267,191.777 407.5,183.5 Z"/></g>
<g><path style="opacity:0.477" fill="#000000" d="M 239.5,187.5 C 249.042,187.287 258.376,188.453 267.5,191C 249.75,189.804 232.084,190.637 214.5,193.5C 213.304,193.154 213.304,192.654 214.5,192C 222.936,190.262 231.27,188.762 239.5,187.5 Z"/></g>
<g><path style="opacity:0.543" fill="#000000" d="M 229.5,194.5 C 241.504,193.054 252.837,195.054 263.5,200.5C 263.333,200.833 263.167,201.167 263,201.5C 246.827,195.199 230.494,194.865 214,200.5C 213.5,200.333 213,200.167 212.5,200C 218.125,197.685 223.792,195.851 229.5,194.5 Z"/></g>
<g><path style="opacity:0.656" fill="#000000" d="M 685.5,214.5 C 676.463,215.914 667.463,215.748 658.5,214C 664.167,213.667 669.833,213.333 675.5,213C 665.707,213.042 656.373,211.042 647.5,207C 654.555,208.196 661.721,209.03 669,209.5C 680.533,208.27 692.033,207.103 703.5,206C 702.5,207 701.5,208 700.5,209C 695.429,210.965 690.429,212.798 685.5,214.5 Z"/></g>
<g><path style="opacity:0.528" fill="#000000" d="M 230.5,209.5 C 241.058,208.826 251.391,209.993 261.5,213C 244.823,212.086 228.156,212.586 211.5,214.5C 207.101,214.472 206.768,213.972 210.5,213C 217.325,211.919 223.992,210.753 230.5,209.5 Z"/></g>
<g><path style="opacity:0.608" fill="#000000" d="M 242.5,215.5 C 247.833,215.5 253.167,215.5 258.5,215.5C 258.5,216.5 258.5,217.5 258.5,218.5C 242.141,219.358 225.808,220.191 209.5,221C 220.47,218.259 231.47,216.425 242.5,215.5 Z"/></g>
<g><path style="opacity:0.493" fill="#000000" d="M 104.5,217.5 C 113.573,216.359 120.906,219.693 126.5,227.5C 126.333,227.833 126.167,228.167 126,228.5C 120.415,224.623 114.582,221.123 108.5,218C 107.207,217.51 105.873,217.343 104.5,217.5 Z"/></g>
<g><path style="opacity:0.703" fill="#000000" d="M 582.5,246.5 C 584.494,245.65 586.494,245.15 588.5,245C 574.063,257.296 557.396,261.629 538.5,258C 535.377,257.794 532.377,257.127 529.5,256C 547.612,254.789 565.112,250.955 582,244.5C 582.464,245.094 582.631,245.761 582.5,246.5 Z"/></g>
</svg>
